<svg xmlns="http://www.w3.org/2000/svg" xmlns:xlink="http://www.w3.org/1999/xlink" viewBox="0 0 146.49 140.31"><defs><style>.cls-1{fill:url(#linear-gradient);}</style><linearGradient id="linear-gradient" x1="-619.12" y1="-644.09" x2="573.47" y2="548.5" gradientUnits="userSpaceOnUse"><stop offset="0" stop-color="#fff"/><stop offset="1" stop-color="#fff"/></linearGradient></defs><g id="Layer_2" data-name="Layer 2"><g id="Objects"><path class="cls-1" d="M146.46,35.35V35.3a.57.57,0,0,0,0-.13.13.13,0,0,0,0-.06s0-.09,0-.13,0,0,0,0a.84.84,0,0,0-.05-.17.05.05,0,0,1,0,0l-.07-.12s0,0,0,0L130.1,12.72a0,0,0,0,1,0,0l-.07-.07s0,0,0,0l-.07-.06,0,0a.31.31,0,0,0-.1-.05l0,0h0L101.67.08A1,1,0,0,0,101.3,0H45.19a.91.91,0,0,0-.37.08L16.76,12.43h0l0,0-.1.05,0,0-.08.06,0,0a.46.46,0,0,0-.07.07l0,0L.18,34.59v0a.75.75,0,0,0-.07.12s0,0,0,0a.85.85,0,0,0-.06.17v0a.59.59,0,0,0,0,.13v.06s0,.09,0,.13a0,0,0,0,0,0,0v0a.58.58,0,0,0,.05.14.08.08,0,0,0,0,0,1.09,1.09,0,0,0,.08.15L72.48,139.91h0l0,0,.1.1h0a.57.57,0,0,0,.13.08h0l0,0h0l0,0,.08,0h.59l.07,0,0,0h0l0,0h0l.12-.08h0l.1-.1,0,0h0L146.32,35.68a1.19,1.19,0,0,0,.09-.15s0,0,0,0A.57.57,0,0,0,146.46,35.35Zm-129-20.92,10.77,4.74,15.8,7L33.81,53.36,2.29,34.87Zm111.6,0L144.2,34.87,112.68,53.36,102.47,26.12l15.8-6.95ZM100.65,26.56l10.2,27.23H35.63l10.2-27.23Zm10.09,29.09-37.5,81.51L35.74,55.65ZM45.38,1.86H101.1L127,13.28,101.1,24.7H45.38L19.44,13.28ZM4.09,38.08,33.57,55.37l7.8,16.95L68,130.17Zm101,34.24,7.8-16.95,29.47-17.29L78.5,130.17Z"/></g></g></svg>