<svg width="100" height="82" viewBox="0 0 100 82" fill="none" xmlns="http://www.w3.org/2000/svg">
<path d="M0 0V20H8.5V22.5H11.5V20H15.564V21.566C15.564 21.582 15.564 21.598 15.562 21.613C15.503 22.091 15.502 22.401 15.523 22.568C15.575 22.544 15.604 22.54 15.75 22.43C17.244 21.147 17.989 21.774 19.95 22.473C20.432 22.627 20.882 22.717 21.27 22.68C21.657 22.643 21.99 22.5 22.33 22.117C22.3769 22.0643 22.4375 22.0256 22.505 22.0052C22.5725 21.9847 22.6444 21.9833 22.7126 22.0011C22.7809 22.0189 22.8429 22.0552 22.8919 22.106C22.9408 22.1568 22.9748 22.2201 22.99 22.289C23.014 22.397 23.018 22.393 23.178 22.439C23.337 22.486 23.615 22.503 23.924 22.529C24.092 22.543 24.271 22.566 24.454 22.604C24.3894 22.4754 24.3166 22.3512 24.236 22.232C24.0782 22.29 23.9063 22.2976 23.744 22.254C23.401 22.142 23.118 21.889 22.902 21.559C22.687 21.229 22.545 20.798 22.662 20.349C22.779 19.902 23.163 19.508 23.785 19.269C23.8407 19.2476 23.9007 19.2396 23.96 19.2455C24.0194 19.2514 24.0766 19.2711 24.127 19.303C24.163 19.325 24.215 19.342 24.257 19.361C24.1867 19.2938 24.127 19.2162 24.08 19.131C23.946 18.953 23.936 18.613 23.578 18.469C23.4872 18.3298 23.4381 18.1676 23.4363 18.0015C23.4345 17.8353 23.4802 17.6721 23.568 17.531C23.771 17.223 24.128 16.989 24.721 16.741C24.7702 16.7195 24.8233 16.7086 24.877 16.709C24.893 16.678 24.907 16.646 24.926 16.619C25.039 16.455 25.195 16.336 25.418 16.199C25.4685 16.1681 25.5255 16.1492 25.5845 16.144C25.6435 16.1388 25.7029 16.1474 25.758 16.169C26.022 16.274 26.208 16.369 26.355 16.492C26.4352 16.5547 26.5008 16.6343 26.547 16.725L26.551 16.736C26.5775 16.6846 26.6153 16.6399 26.6616 16.6051C26.7078 16.5704 26.7614 16.5467 26.8181 16.5356C26.8749 16.5245 26.9335 16.5265 26.9894 16.5413C27.0453 16.556 27.0971 16.5833 27.141 16.621C27.159 16.637 27.168 16.651 27.186 16.666V16.662C27.234 16.533 27.304 16.481 27.363 16.436C27.482 16.345 27.607 16.29 27.795 16.219C27.8343 16.2036 27.8758 16.1948 27.918 16.193C27.952 16.193 27.986 16.197 28.02 16.205C28.214 16.252 28.346 16.289 28.475 16.365L28.488 16.344C28.5429 16.2744 28.6203 16.2259 28.7069 16.207C28.7935 16.188 28.884 16.1997 28.963 16.24C29.188 16.354 29.353 16.457 29.483 16.563C29.613 16.668 29.723 16.769 29.771 16.963C29.7973 17.0719 29.7871 17.1864 29.742 17.289C29.6988 17.3784 29.6303 17.4532 29.545 17.504C29.512 17.524 29.484 17.529 29.453 17.541C29.589 17.579 29.678 17.576 29.727 17.559C29.82 17.525 29.937 17.384 30.096 17.123C30.254 16.863 30.444 16.512 30.796 16.244C30.871 16.188 30.955 16.141 31.043 16.098H20V0H0ZM5 5H15V15H5V5ZM22.5 8.5V11.5H28.5V8.5H22.5ZM31.5 8.5V11.5H37.5V8.5H31.5ZM40.5 8.5V11.5H46.5V8.5H40.5ZM49.5 8.5V11.5H55.5V8.5H49.5ZM58.5 8.5V11.5H64.5V8.5H58.5ZM67.5 8.5V11.5H73.5V8.5H67.5ZM76.5 8.5V11.5H82.5V8.5H76.5ZM85.5 8.5V11.5H91.5V8.5H85.5ZM88.5 14.5V20.5H91.5V14.5H88.5ZM43.57 16.094C43.767 16.222 43.957 16.344 44.195 16.516C44.2133 16.5295 44.2304 16.5445 44.246 16.561C44.498 16.821 44.616 17.145 44.636 17.447C44.658 17.749 44.599 18.031 44.536 18.293C44.407 18.816 44.288 19.259 44.373 19.502C44.3936 19.5616 44.3992 19.6254 44.3893 19.6876C44.3793 19.7499 44.3542 19.8088 44.316 19.859C43.816 21.174 43.805 21.427 43.828 22.896C43.616 23.246 43.298 23.495 42.951 23.729C42.26 24.194 41.415 24.62 40.721 25.387C40.564 25.593 40.403 25.932 40.248 26.291C40.091 26.655 39.94 27.033 39.738 27.344C39.638 27.499 39.522 27.644 39.354 27.752C39.2616 27.8099 39.1582 27.8483 39.0504 27.8648C38.9426 27.8813 38.8325 27.8756 38.727 27.848C38.341 27.738 38.073 27.355 37.76 26.836C37.328 26.542 37.134 26.067 37.072 25.606C37.01 25.141 37.06 24.663 37.125 24.24C37.181 23.877 37.238 23.595 37.27 23.387C37.146 23.368 37.014 23.362 36.906 23.307C36.75 22.833 36.44 22.738 36.973 22.252C36.953 22.252 36.954 22.248 36.933 22.248C36.8738 22.2476 36.8155 22.2334 36.7627 22.2067C36.7099 22.1799 36.664 22.1413 36.6286 22.0938C36.5932 22.0463 36.5693 21.9913 36.5588 21.933C36.5483 21.8748 36.5515 21.8148 36.568 21.758C36.724 21.222 36.603 20.23 36.252 19.58C36.076 19.255 35.854 19.023 35.635 18.924C35.415 18.824 35.189 18.814 34.838 19.01C34.755 19.0567 34.6576 19.0707 34.5648 19.0495C34.472 19.0282 34.3904 18.9731 34.336 18.895C34.002 18.416 33.576 17.789 33.459 17.105C33.3958 16.7593 33.4574 16.4024 33.633 16.098H32.63C33.423 16.645 33.007 18.138 32.155 18.648C32.26 18.733 32.381 18.794 32.437 18.938C32.527 19.17 32.486 19.441 32.364 19.68C32.3363 19.734 32.2962 19.7806 32.247 19.816C32.149 19.886 32.053 19.941 31.956 19.996C32.443 20.166 32.912 20.45 33.333 20.803C34.07 21.42 34.671 22.223 34.954 23.002C35.109 23.162 35.222 23.345 35.362 23.592C35.528 23.883 35.692 24.219 35.798 24.527C35.851 24.681 35.891 24.827 35.903 24.98C35.915 25.135 35.911 25.366 35.69 25.525C35.5923 25.5907 35.4754 25.6217 35.358 25.613C35.369 25.693 35.434 25.781 35.435 25.857C35.439 26.232 35.326 26.59 35.054 26.824C34.837 27.01 34.514 26.977 34.21 26.916C34.32 27.059 34.401 27.233 34.476 27.424C34.573 27.353 34.652 27.224 34.769 27.191C35.049 27.111 35.366 27.238 35.544 27.421C35.879 27.768 36.034 28.277 36.216 28.871C36.7161 29.2431 37.081 29.7684 37.255 30.367C37.423 30.913 37.492 31.414 37.722 31.873C37.7448 31.9187 37.7583 31.9685 37.7616 32.0195C37.7649 32.0705 37.758 32.1217 37.7412 32.1699C37.7244 32.2182 37.6982 32.2626 37.6639 32.3006C37.6297 32.3386 37.5883 32.3693 37.542 32.391C37.285 32.511 37.053 32.576 36.827 32.568C36.154 32.193 36.372 32.196 36.217 32.637C36.094 32.86 35.883 32.962 35.64 33.033C35.6 33.0443 35.5585 33.049 35.517 33.047C35.119 33.03 34.849 33.12 34.599 33.287C34.349 33.455 34.119 33.717 33.884 34.051C33.449 34.669 32.959 35.528 32.224 36.307C32.312 36.731 32.384 37.05 32.384 37.257C32.384 37.319 32.385 37.381 32.344 37.482C32.3125 37.5405 32.2688 37.5917 32.216 37.632L32.256 37.645C32.53 37.734 32.838 37.858 33.114 38.004C33.282 38.092 33.437 38.177 33.571 38.293C33.6151 38.2621 33.6653 38.2409 33.7182 38.2308C33.7711 38.2206 33.8256 38.2217 33.878 38.234C34.095 38.286 34.255 38.341 34.394 38.422C34.532 38.503 34.704 38.654 34.7 38.896C34.697 39.139 34.538 39.268 34.429 39.336C34.3281 39.3975 34.217 39.4405 34.101 39.463C33.9863 39.4889 33.8683 39.4973 33.751 39.488C33.659 39.4783 33.5695 39.4519 33.487 39.41C33.443 39.43 33.401 39.456 33.354 39.473C33.2982 39.4922 33.2388 39.4983 33.1803 39.4907C33.1218 39.4832 33.0659 39.4623 33.0168 39.4296C32.9677 39.3969 32.9269 39.3532 32.8974 39.3022C32.868 39.2511 32.8507 39.1939 32.847 39.135C32.824 39.12 32.793 39.098 32.714 39.068C32.511 38.991 32.18 38.921 31.872 38.854C31.7239 38.8231 31.5772 38.7864 31.432 38.744C31.296 38.702 31.172 38.668 31.032 38.547C30.9516 38.4744 30.8957 38.3787 30.872 38.273C30.895 38.383 30.903 38.48 30.905 38.574C30.911 38.789 30.925 39.011 30.95 39.08L30.952 39.084C30.943 39.081 30.938 39.088 31.011 39.072C31.235 39.023 31.451 39.182 31.474 39.41C31.529 39.989 31.672 40.194 31.794 40.275C31.916 40.357 32.139 40.373 32.481 40.315C33.156 40.2 34.151 39.802 35.13 40.193C36.088 40.373 36.771 40.869 37.339 41.369C37.917 41.879 38.404 42.374 39.026 42.646C39.886 42.712 40.522 43.018 40.839 43.537C41.175 44.087 41.156 44.76 40.972 45.404C40.617 46.641 39.665 47.85 38.62 48.383C37.926 50.365 36.29 51.349 35.44 52.263C35.363 52.843 35.123 53.373 34.942 53.863C34.737 54.421 34.635 54.906 34.925 55.496C34.9503 55.5477 34.9637 55.6044 34.964 55.662C34.966 55.902 34.943 56.105 34.806 56.295C34.669 56.485 34.374 56.566 34.179 56.52C33.789 56.427 33.55 56.148 33.289 55.809C33.0099 55.4458 32.787 55.0426 32.628 54.613C32.469 54.178 32.377 53.723 32.518 53.291C32.5218 53.2806 32.5258 53.2703 32.53 53.26C33.082 51.97 32.963 49.758 33.437 47.797C33.484 47.397 33.341 46.985 33.079 46.533C32.817 46.081 32.442 45.607 32.11 45.107C31.779 44.607 31.48 44.075 31.423 43.465C31.378 42.979 31.675 42.468 32.03 41.971C31.783 41.617 31.215 41.131 30.458 40.707C29.653 40.257 28.698 39.867 27.89 39.668L27.929 39.676C27.445 39.608 27.149 39.254 26.813 38.859C26.638 38.653 26.489 38.419 26.325 38.189C25.663 37.965 25.169 37.706 24.735 36.867C24.5297 36.5749 24.3724 36.2518 24.269 35.91C23.307 35.057 23.017 33.924 22.825 32.871C22.678 32.067 22.554 31.312 22.239 30.676C22.1233 30.7371 21.9924 30.7635 21.862 30.752C21.618 30.735 21.349 30.628 21.212 30.334C21.1435 30.1773 21.1339 30.0012 21.185 29.838C21.233 29.68 21.328 29.54 21.456 29.404C21.086 28.849 20.564 28.362 20.032 28.088C19.682 27.908 19.334 27.818 19.03 27.83C18.7235 27.8367 18.4322 27.9647 18.22 28.186C18.2089 28.1967 18.1972 28.2067 18.185 28.216C17.891 29.484 17.094 28.94 16.075 29.828C15.955 29.879 15.857 29.925 15.681 29.906C15.647 29.903 15.606 29.861 15.565 29.846V65.859H18.935C20.321 65.956 21.798 65.216 23.2 64.523C24.594 64.888 26.163 65.415 27.296 65.561C27.256 64.887 26.969 64.268 27.534 63.863C29.241 63.755 31.192 64.047 32.895 64.355C32.854 64.217 32.847 64.137 32.776 63.93C32.57 62.07 34.435 61.653 35.122 59.777C35.818 59.294 36.672 58.501 36.96 59.604C35.89 61.254 36.529 63.781 36.356 65.859H39.581C40.245 65.759 40.924 65.882 41.507 65.902C42.109 65.923 42.539 65.861 42.845 65.49C44.103 63.94 45.987 62.239 48.052 62.21C50.195 62.14 53.187 62.454 55.522 61.795C56.026 61.511 56.625 61.06 57.302 60.775C58.134 60.341 59.172 60.509 60.179 60.828C61.091 61.118 61.946 61.553 62.644 61.922C63.06 61.68 63.204 61.331 63.409 60.882C63.522 60.637 63.691 60.347 64.022 60.207C64.354 60.067 64.744 60.112 65.235 60.291H65.237C65.757 60.481 66.251 60.241 66.911 60.031C67.241 59.927 67.611 59.837 68.017 59.891C68.344 59.934 68.674 60.161 68.997 60.421C70.375 60.031 71.551 60.715 73.085 60.406C73.652 60.291 74.167 60.108 74.464 60.043C74.5154 60.0318 74.5686 60.0314 74.6203 60.0417C74.6719 60.0521 74.7208 60.0729 74.764 60.103C76.017 60.984 77.924 61.201 79.458 62.326C79.47 62.329 79.476 62.336 79.488 62.34C79.672 62.39 79.834 62.456 79.999 62.521V82H99.999V62H91.499V59.5H88.499V62H84.464V30.814C84.116 30.921 83.801 31.072 83.405 30.891C83.12 30.905 83.091 30.251 82.895 30.916C82.8122 30.9723 82.7142 31.002 82.6141 31.0009C82.5139 30.9998 82.4165 30.9681 82.335 30.91C81.945 30.756 81.931 30.386 81.267 30.412C81.2439 30.3513 81.2344 30.2863 81.2391 30.2215C81.2437 30.1567 81.2625 30.0938 81.294 30.037C81.339 29.962 81.381 29.93 81.419 29.9C81.709 29.871 81.887 29.551 82.2 29.88C82.422 29.947 82.284 30.45 82.688 30.025C83.113 30.022 83.76 30.202 84.276 29.91C84.3415 29.9086 84.4062 29.9241 84.464 29.955V26.885L84.466 26.873C84.479 26.397 84.491 26.1 84.486 25.951C84.486 25.941 84.484 25.948 84.483 25.939C84.4173 25.9313 84.3526 25.9165 84.29 25.895C84.16 25.858 83.948 25.743 83.759 25.652C82.571 27.692 79.926 27.155 79.843 29.896V29.898C79.688 30.272 79.54 30.57 79.392 30.785C79.234 31.013 79.081 31.184 78.833 31.258C78.7012 31.2962 78.5604 31.2891 78.433 31.238C78.3216 31.1891 78.226 31.1102 78.157 31.01C78.031 30.833 77.981 30.64 77.95 30.426C77.888 29.996 77.93 29.467 78.087 28.943C78.211 28.526 78.489 28.161 78.8 27.832C78.725 27.887 78.678 28.012 78.599 28.052C78.248 28.232 77.884 28.272 77.546 28.295C76.871 28.34 76.291 28.313 75.696 28.787C75.5137 28.9407 75.3445 29.1093 75.19 29.291C75.244 29.305 75.273 29.316 75.345 29.332C75.629 29.393 76.029 29.452 76.355 29.752C76.517 29.902 76.644 30.126 76.681 30.382C76.718 30.64 76.678 30.922 76.567 31.244C76.5431 31.3134 76.4997 31.3745 76.442 31.42C76.28 31.548 76.292 31.58 76.308 31.705C76.324 31.831 76.416 32.035 76.522 32.258C76.629 32.481 76.772 32.73 76.726 33.072C76.698 33.2561 76.6068 33.4248 76.468 33.549C76.388 33.619 76.273 33.652 76.173 33.699C76.214 34.382 75.903 35.044 75.405 35.531C74.819 36.106 74.081 36.535 73.362 36.424C73.308 36.4156 73.2564 36.3957 73.2107 36.3657C73.165 36.3357 73.1263 36.2962 73.0971 36.25C73.0679 36.2038 73.049 36.1518 73.0415 36.0977C73.0341 36.0435 73.0384 35.9884 73.054 35.936C73.287 35.161 74.001 34.739 74.524 34.24C75.016 33.771 75.336 33.301 75.263 32.533C75.179 32.681 75.12 32.817 75.019 32.965C74.9653 33.0434 74.8844 33.0989 74.792 33.121C74.372 33.221 74.147 33.364 73.997 33.523C73.847 33.683 73.762 33.876 73.69 34.119C73.547 34.605 73.492 35.322 72.856 35.799C72.793 35.8457 72.7171 35.872 72.6387 35.8742C72.5603 35.8764 72.4831 35.8545 72.4176 35.8114C72.352 35.7683 72.3013 35.7061 72.2722 35.6333C72.2431 35.5604 72.2371 35.4804 72.255 35.404C72.33 35.089 72.297 34.944 72.269 34.883C72.263 34.871 72.24 34.863 72.233 34.853C72.2187 34.9539 72.1753 35.0485 72.108 35.125C72.083 35.154 72.045 35.162 72.018 35.185C72.244 35.623 72.322 36.101 72.188 36.539C72.1225 36.7426 72.035 36.9384 71.927 37.123C72.016 37.18 72.077 37.271 72.097 37.375C72.18 37.82 72.192 38.11 72.075 38.375C72.0329 38.461 71.9712 38.536 71.895 38.594C71.945 38.612 71.995 38.629 72.042 38.656C72.1767 38.7361 72.2773 38.8627 72.325 39.012C72.401 39.281 72.3 39.438 72.249 39.555C72.658 39.593 72.728 40.16 72.341 40.297C72.389 40.281 72.366 40.281 72.349 40.314C72.3352 40.3435 72.3277 40.3755 72.327 40.408C72.329 40.408 72.347 40.427 72.472 40.404C72.5256 40.3946 72.5807 40.3967 72.6334 40.4102C72.6862 40.4237 72.7355 40.4483 72.778 40.4824C72.8205 40.5165 72.8552 40.5592 72.8799 40.6078C72.9045 40.6563 72.9185 40.7096 72.921 40.764C72.761 42.83 71.426 41.494 74.438 42.652C74.498 42.714 74.494 42.747 74.524 42.802C74.5855 42.7568 74.6591 42.7311 74.7354 42.7281C74.8117 42.725 74.8871 42.7449 74.952 42.785C75.047 42.845 75.435 42.962 75.86 43.037C76.285 43.113 76.764 43.172 77.155 43.232C77.351 43.262 77.523 43.293 77.669 43.33C77.742 43.348 77.807 43.367 77.878 43.398C77.9396 43.4259 77.9958 43.4645 78.044 43.512C78.1039 43.4742 78.1732 43.4538 78.244 43.453C78.304 43.453 78.364 43.468 78.419 43.496L78.433 43.504L78.618 43.6L78.63 43.605C79.034 43.834 79.288 44.016 79.454 44.182C79.537 44.264 79.608 44.322 79.655 44.49C79.6725 44.5518 79.6761 44.6168 79.6658 44.6802C79.6554 44.7436 79.6312 44.8039 79.595 44.857C79.5577 44.907 79.5101 44.9485 79.4554 44.9785C79.4007 45.0085 79.3402 45.0264 79.278 45.031C79.113 45.044 79.035 45 78.938 44.955C78.8307 44.904 78.7289 44.8424 78.634 44.771C78.4047 44.5903 78.1985 44.3821 78.02 44.151C77.9498 44.2093 77.869 44.2535 77.782 44.281C77.741 44.297 77.657 44.311 77.608 44.326C77.618 44.344 77.638 44.371 77.645 44.389C77.712 44.534 77.788 44.662 77.718 44.895C77.6746 45.0176 77.5858 45.1189 77.47 45.178C77.39 45.2152 77.3019 45.2313 77.214 45.225C77.0941 45.2175 76.9757 45.1939 76.862 45.155L76.364 45.005C76.602 45.705 77.217 46.362 77.754 47.104C78.051 47.512 78.314 47.958 78.409 48.48C78.503 48.999 78.402 49.58 78.054 50.178C77.844 50.896 77.516 51.362 77.074 51.551C77.164 51.623 77.244 51.698 77.306 51.783C77.413 51.93 77.483 52.168 77.396 52.367C76.836 52.698 76.481 52.968 75.876 52.334C75.796 52.133 75.872 51.897 75.986 51.754C76.0352 51.695 76.0905 51.6414 76.151 51.594C75.8941 51.5118 75.6478 51.3997 75.417 51.26C74.942 50.989 74.472 50.642 74.038 50.389C73.646 50.159 73.3 50.033 73.05 50.035C72.51 50.487 71.986 50.713 71.493 50.699C70.963 50.684 70.523 50.386 70.239 49.986C69.673 49.188 69.575 47.985 70.015 47.004C70.0384 46.9514 70.0735 46.9047 70.1174 46.8675C70.1614 46.8302 70.2132 46.8034 70.269 46.789C71.051 46.584 71.659 46.01 72.339 45.492C72.679 45.233 73.039 44.99 73.464 44.85C73.888 44.71 74.377 44.687 74.899 44.852C75.079 44.909 75.19 45.089 75.161 45.275C75.117 45.553 75.161 45.64 75.175 45.68C75.286 45.618 75.523 45.366 75.522 44.973C75.4503 44.9857 75.3764 44.9776 75.3091 44.9498C75.2418 44.922 75.1839 44.8756 75.142 44.816C75.169 44.856 75.136 44.81 75.075 44.766C74.9934 44.7082 74.91 44.6528 74.825 44.6C74.622 44.471 74.364 44.318 74.122 44.146C73.9956 44.0575 73.875 43.961 73.761 43.857C73.75 43.863 73.736 43.878 73.726 43.883C73.571 43.954 73.476 43.951 73.353 43.959C73.2248 43.9665 73.0962 43.9665 72.968 43.959C72.928 43.957 72.895 43.949 72.856 43.945C72.9097 43.9618 72.9591 43.9902 73.0005 44.0282C73.042 44.0663 73.0746 44.113 73.096 44.165C73.1626 44.3151 73.1794 44.4826 73.144 44.643C73.1051 44.7901 73.0173 44.9195 72.895 45.01C72.8037 45.0788 72.6993 45.1282 72.5882 45.155C72.4771 45.1819 72.3616 45.1856 72.249 45.166C71.3576 44.9004 70.4283 44.7848 69.499 44.824C68.627 44.782 67.93 44.174 67.407 43.537C66.9775 43.0142 66.6281 42.4305 66.37 41.805C66.3438 41.736 66.3381 41.6609 66.3536 41.5887C66.3691 41.5166 66.4051 41.4504 66.4572 41.3982C66.5094 41.3461 66.5756 41.3101 66.6477 41.2946C66.7199 41.2791 66.795 41.2848 66.864 41.311C66.966 41.35 67.046 41.409 67.14 41.455C66.984 41.111 66.825 40.745 66.68 40.438C66.6054 40.2745 66.5243 40.1141 66.437 39.957C66.4142 39.9166 66.3891 39.8776 66.362 39.84C66.3174 39.8101 66.2795 39.7711 66.2509 39.7257C66.2223 39.6802 66.2036 39.6292 66.196 39.576C66.136 39.153 65.969 38.979 65.753 38.883C65.536 38.787 65.226 38.789 64.917 38.91C64.5942 39.0372 64.3208 39.2647 64.137 39.559C64.0367 39.7219 63.9734 39.9049 63.9517 40.095C63.9299 40.2851 63.9501 40.4776 64.011 40.659C64.05 40.867 64.073 41.029 64.085 41.16C64.097 41.292 64.109 41.384 64.069 41.523C64.0433 41.6279 63.979 41.7193 63.889 41.779C63.833 41.8125 63.7706 41.8338 63.7058 41.8416C63.641 41.8494 63.5753 41.8434 63.513 41.824C63.339 41.763 63.307 41.694 63.255 41.634C63.152 41.518 63.071 41.389 63.009 41.309C62.9882 41.3014 62.9682 41.292 62.949 41.281C62.527 41.037 62.267 40.625 62.024 40.191C61.782 39.757 61.564 39.285 61.31 38.875C61.056 38.465 60.773 38.127 60.433 37.93C60.193 37.792 59.829 37.821 59.476 37.834C59.633 38.847 58.511 39.705 57.671 40.207C57.761 40.242 57.856 40.266 57.931 40.344C58.043 40.461 58.101 40.636 58.099 40.777C58.096 41.061 57.969 41.257 57.825 41.473C57.6612 41.7086 57.4853 41.9356 57.298 42.153C56.901 42.628 56.445 43.153 56.167 43.611C55.655 44.923 55.949 46.707 54.877 48.135C54.314 49.259 53.447 50.284 52.067 50.572C51.9862 50.5891 51.902 50.5796 51.827 50.545C51.195 50.2516 50.6891 49.7414 50.401 49.107C50.122 48.514 50.005 47.853 49.933 47.186C49.788 45.851 49.798 44.476 49.36 43.606C49.3363 43.5583 49.323 43.5062 49.321 43.453C49.282 42.686 49.038 42.315 48.63 42.125C48.222 41.935 47.548 41.944 46.667 42.242C46.6059 42.2626 46.5405 42.2674 46.477 42.256C44.863 41.969 44.042 40.735 43.972 39.436C43.9405 38.7112 44.0907 37.99 44.409 37.338C44.3252 37.3245 44.2469 37.2878 44.183 37.232C44.1213 37.1692 44.076 37.0922 44.0511 37.0078C44.0262 36.9235 44.0224 36.8342 44.04 36.748C44.0772 36.6296 44.1476 36.5244 44.243 36.445C44.2896 36.4012 44.3463 36.3697 44.4082 36.3535C44.47 36.3372 44.5349 36.3367 44.597 36.352C44.65 36.364 44.688 36.384 44.733 36.398C44.7808 36.3571 44.8379 36.3286 44.8992 36.315C44.9606 36.3014 45.0244 36.3031 45.085 36.32C45.225 36.164 45.371 36.014 45.535 35.88C45.5574 35.8612 45.5819 35.8451 45.608 35.832C45.935 35.672 45.95 35.572 45.946 35.35C45.943 35.127 45.822 34.789 45.696 34.44C45.57 34.09 45.41 33.72 45.534 33.291C45.6074 33.0616 45.7654 32.8689 45.976 32.752C46.191 32.631 46.448 32.57 46.772 32.543C46.7856 32.5416 46.7993 32.541 46.813 32.541C46.902 32.543 46.895 32.538 46.929 32.531C46.907 32.467 46.866 32.333 46.776 32.127C46.667 31.875 46.493 31.573 46.651 31.184C46.659 31.164 46.69 31.16 46.701 31.141C46.658 31.102 46.575 31.147 46.538 31.1C46.453 30.988 46.465 30.832 46.436 30.691C46.177 30.766 45.909 30.8 45.692 30.654C45.5578 30.5566 45.4571 30.4198 45.4039 30.2628C45.3507 30.1057 45.3476 29.9359 45.395 29.777C45.478 29.509 45.747 29.297 46.048 29.087C46.152 28.64 46.249 28.308 46.431 28.078C46.4832 28.0069 46.5491 27.9469 46.6249 27.9015C46.7006 27.8562 46.7846 27.8264 46.872 27.814C46.9575 27.8077 47.0435 27.8186 47.1247 27.8461C47.2059 27.8736 47.2808 27.9171 47.345 27.974C47.565 28.161 47.683 28.404 47.812 28.699C47.938 28.989 48.055 29.33 48.163 29.686C48.241 29.9 48.309 30.016 48.356 30.082C48.406 30.028 48.47 29.942 48.54 29.826C48.692 29.574 48.857 29.223 49.024 28.908C49.096 28.773 49.171 28.649 49.251 28.531C49.211 28.516 49.164 28.54 49.126 28.521C48.8435 28.3854 48.607 28.1698 48.446 27.901C48.2628 27.5983 48.2014 27.2373 48.274 26.891C48.351 26.538 48.574 26.194 48.938 25.887C49.414 25.236 50.139 23.904 50.974 22.934C51.394 22.444 51.844 22.029 52.386 21.857C52.888 21.698 53.458 21.867 53.919 22.317C54.039 22.34 54.166 22.347 54.276 22.402C54.451 22.489 54.629 22.605 54.808 22.74C55.155 23.003 55.496 23.335 55.751 23.67C55.847 23.395 56.058 23.17 56.304 23.127C56.4411 23.104 56.5818 23.1174 56.712 23.166C57.184 22.589 57.305 22.376 57.935 22.918C58 23.018 58.02 23.152 58.013 23.281C58.291 23.183 58.571 23.11 58.864 23.068C58.854 23.026 58.83 22.977 58.825 22.936C58.421 22.706 57.69 22.343 57.446 21.713C57.625 20.015 59.045 18.093 61.015 17.309C61.0324 17.3085 61.0497 17.3091 61.067 17.311C62.569 18.552 60.579 19.002 59.749 19.811C59.55 20.204 59.449 20.735 59.369 21.221C59.328 21.464 59.292 21.696 59.241 21.904C59.357 22.117 58.816 22.477 59.415 22.224C59.555 22.228 59.674 22.262 59.795 22.304C60.055 22.394 60.296 22.529 60.563 22.666C60.533 22.458 60.378 22.262 60.403 22.064C60.672 21.218 60.896 20.236 61.997 20.342C62.151 20.436 62.173 20.602 62.22 20.754C63.152 20.908 62.892 21.033 63.343 20.414C63.836 20.218 63.953 19.934 64.21 19.494C64.467 19.054 64.866 18.498 65.743 18.188C65.8252 18.1591 65.9148 18.1591 65.997 18.188C66.793 18.224 67.133 17.926 67.697 17.109C67.849 16.9896 68.0267 16.9072 68.2161 16.8683C68.4054 16.8294 68.6012 16.8351 68.788 16.885C68.8121 16.891 68.8355 16.8994 68.858 16.91C69.685 17.304 70.126 17.949 70.29 18.588C70.417 19.082 70.337 19.515 70.272 19.926C70.665 20.086 71.052 20.132 71.524 20.104C72.07 20.071 72.708 20.01 73.378 20.299C73.444 20.3277 73.5007 20.3745 73.5414 20.4339C73.582 20.4933 73.6051 20.563 73.608 20.635C73.628 21.106 73.66 21.337 73.685 21.449C73.813 21.397 74.148 21.381 74.575 21.445C74.73 21.215 74.903 21.001 75.101 20.861C75.0457 20.8061 74.9982 20.7439 74.96 20.676C74.822 20.429 74.853 20.105 75.02 19.801C74.8456 19.765 74.687 19.6746 74.567 19.543C74.558 19.533 74.557 19.517 74.547 19.506C74.525 19.51 74.507 19.523 74.483 19.523C74.4116 19.5211 74.3414 19.5032 74.2779 19.4705C74.2143 19.4377 74.159 19.3911 74.116 19.334C74.0556 19.2504 74.0193 19.1518 74.011 19.049C73.989 18.859 74.031 18.666 74.134 18.441C74.1549 18.395 74.1847 18.3535 74.2217 18.3191C74.2588 18.2846 74.3022 18.2578 74.3496 18.2403C74.397 18.2227 74.4475 18.2147 74.498 18.2167C74.5485 18.2187 74.5981 18.2307 74.644 18.252C74.657 18.228 74.664 18.208 74.679 18.184C74.7185 18.1163 74.7779 18.0623 74.8491 18.0294C74.9202 17.9965 74.9998 17.9862 75.077 18C76.37 18.326 79.353 19.382 76.788 19.684C76.549 19.716 76.264 19.752 75.988 19.785C76.234 20.013 76.409 20.231 76.417 20.515C76.4166 20.6198 76.3876 20.7225 76.333 20.812C76.458 20.85 76.583 20.88 76.706 20.928C77.54 21.248 78.406 21.72 78.962 21.705C79.0624 21.702 79.16 21.7386 79.2337 21.8069C79.3074 21.8751 79.3513 21.9696 79.356 22.07C79.646 22.248 79.903 22.692 80.708 22.383C80.8639 22.3768 81.0175 22.4222 81.145 22.512C81.176 22.534 81.167 22.583 81.192 22.613C81.331 22.587 81.44 22.47 81.587 22.477C82.669 22.66 83.552 22.994 84.466 23.757V16.097H43.695C43.628 16.093 43.631 16.097 43.57 16.094ZM26.533 17.2C26.4573 17.3314 26.3354 17.4298 26.191 17.476C26.0569 17.5257 25.9159 17.554 25.773 17.56C25.725 17.562 25.676 17.55 25.627 17.548C25.6566 17.619 25.6846 17.6907 25.711 17.763C25.715 17.773 25.719 17.782 25.723 17.796C25.7296 17.821 25.7346 17.8464 25.738 17.872L25.74 17.922L25.564 17.917C25.644 17.977 25.725 18.046 25.801 18.101C25.834 18.046 25.833 17.963 25.877 17.915C25.9696 17.8218 26.0859 17.7557 26.2132 17.7236C26.3406 17.6916 26.4743 17.6948 26.6 17.733C26.779 17.797 26.918 17.913 27.041 18.053C27.051 18.017 27.055 17.979 27.074 17.944C27.083 17.929 27.095 17.921 27.105 17.907C26.908 17.874 26.783 17.752 26.68 17.601C26.6039 17.4793 26.5538 17.3431 26.533 17.201V17.2ZM28.172 18.292C28.045 18.312 27.927 18.326 27.865 18.342C27.895 18.395 27.895 18.397 27.945 18.474C28.032 18.602 28.135 18.791 28.232 18.981C28.251 18.987 28.275 18.999 28.285 19.001C28.279 18.999 28.292 18.991 28.295 18.884C28.2947 18.7223 28.2705 18.5616 28.223 18.407C28.202 18.339 28.196 18.339 28.172 18.292ZM75.219 18.854C75.203 18.899 75.156 18.984 75.152 19.009L75.148 19.03C75.148 19.015 75.318 19.082 75.613 19.063C75.651 19.061 75.701 19.051 75.74 19.048C75.556 18.997 75.393 18.891 75.219 18.854ZM27.555 19.329C27.5418 19.3898 27.517 19.4476 27.482 19.499C27.351 19.684 27.18 19.758 27.004 19.815C26.652 19.931 26.224 19.955 25.781 19.919C25.5372 19.8982 25.2961 19.8537 25.061 19.786L25.071 19.812C25.251 20.337 25.421 20.443 25.547 20.476C25.673 20.508 25.882 20.456 26.125 20.345C26.247 20.29 26.371 20.225 26.504 20.171C26.637 20.116 26.779 20.057 26.984 20.081C27.164 20.102 27.338 20.258 27.43 20.427C27.454 20.354 27.48 20.281 27.521 20.21C27.6406 20.0122 27.8273 19.8638 28.047 19.792C28.099 19.775 28.157 19.776 28.213 19.767C28.0675 19.7466 27.9267 19.7009 27.797 19.632C27.7184 19.5915 27.6562 19.5251 27.621 19.444C27.602 19.401 27.575 19.37 27.555 19.329ZM28.547 19.739L28.527 19.747C28.537 19.747 28.546 19.75 28.555 19.751L28.547 19.739ZM29.426 20.382C29.378 20.393 29.369 20.396 29.328 20.485C29.308 20.528 29.325 20.688 29.313 20.763C29.353 20.638 29.429 20.52 29.493 20.397C29.481 20.398 29.433 20.38 29.426 20.382ZM28.283 20.52C28.221 20.54 28.203 20.56 28.18 20.6C28.132 20.681 28.117 20.904 28.182 21.095C28.238 21.261 28.323 21.312 28.316 21.325C28.343 21.295 28.39 21.189 28.434 21.095C28.388 20.905 28.424 20.715 28.432 20.525C28.388 20.527 28.308 20.512 28.283 20.52ZM28.01 22.042C28.078 22.216 28.124 22.388 28.148 22.56C28.2006 22.509 28.2667 22.4742 28.3385 22.4597C28.4103 22.4452 28.4847 22.4515 28.553 22.478C28.546 22.358 28.534 22.206 28.527 22.081C28.4285 22.1168 28.323 22.1288 28.219 22.116C28.139 22.104 28.075 22.072 28.009 22.042H28.01ZM32.154 23.431C32.096 23.681 32.039 23.995 31.937 24.308C31.877 24.492 31.689 24.614 31.57 24.78C31.826 24.957 32.12 25.12 32.176 25.37C32.215 25.239 32.2758 25.1156 32.356 25.005C32.452 24.876 32.563 24.752 32.666 24.628C32.673 24.619 32.676 24.611 32.684 24.603C32.67 24.601 32.654 24.607 32.641 24.604C32.5217 24.5853 32.409 24.5372 32.313 24.464C32.2495 24.4152 32.1969 24.3538 32.1585 24.2835C32.1201 24.2133 32.0968 24.1358 32.09 24.056C32.0848 23.8898 32.1451 23.7282 32.258 23.606L32.154 23.431ZM88.5 23.5V29.5H91.5V23.5H88.5ZM15.566 23.67V25.045C15.626 25.076 15.673 25.115 15.736 25.143C16.671 24.691 16.136 24.144 15.566 23.67ZM24.041 24.29C23.9859 24.2879 23.9311 24.2977 23.8802 24.3188C23.8293 24.3399 23.7835 24.3716 23.746 24.412C23.616 24.552 23.526 24.673 23.473 24.832C23.419 24.991 23.453 25.254 23.602 25.389C23.6574 25.4396 23.7225 25.4786 23.7932 25.5037C23.864 25.5288 23.9391 25.5394 24.014 25.535C24.132 25.536 24.239 25.515 24.344 25.482C24.4524 25.4503 24.5545 25.4002 24.646 25.334C24.7172 25.2889 24.7761 25.227 24.8178 25.1538C24.8595 25.0805 24.8826 24.9982 24.885 24.914C24.89 24.686 24.718 24.518 24.58 24.444C24.4116 24.3591 24.2288 24.3066 24.041 24.289V24.29ZM15.566 25.232V26.814C15.571 26.814 15.577 26.814 15.582 26.812C16.506 26.326 16.515 25.928 15.891 25.275C15.7845 25.2489 15.6756 25.2345 15.566 25.232ZM31.143 25.307C31.1432 25.3244 31.1418 25.3418 31.139 25.359C31.095 25.721 31.179 25.754 31.178 25.754C31.177 25.754 31.264 25.762 31.35 25.701C31.435 25.641 31.462 25.574 31.455 25.535C31.451 25.51 31.278 25.399 31.143 25.307ZM8.5 25.5V31.5H11.5V25.5H8.5ZM32.145 25.545C32.1419 25.7664 32.0738 25.9821 31.949 26.165C32.002 26.273 32.039 26.391 32.029 26.518C32.0155 26.6641 31.9498 26.8004 31.844 26.902C31.7676 26.9759 31.6758 27.032 31.5752 27.0662C31.4746 27.1005 31.3676 27.112 31.262 27.1C31.1439 27.0978 31.0298 27.0571 30.937 26.984C30.815 26.89 30.726 26.632 30.783 26.469C30.79 26.45 30.802 26.442 30.809 26.426L30.805 26.424C30.283 26.637 28.791 28.42 31.633 28.963C31.777 28.972 31.903 29.061 31.961 29.193C32.015 28.947 32.087 28.726 32.107 28.553C31.821 28.067 31.734 27.583 31.846 27.176C31.9048 26.9646 32.0146 26.7709 32.1658 26.6119C32.317 26.4529 32.5049 26.3334 32.713 26.264C32.921 26.194 33.141 26.334 33.365 26.371C33.267 26.275 33.169 26.224 33.07 26.101C32.87 26.109 32.681 26.121 32.523 26.068C32.4015 26.0313 32.295 25.9567 32.219 25.855C32.1619 25.7622 32.136 25.6536 32.145 25.545ZM25.512 26.42C25.4644 26.4182 25.417 26.4254 25.372 26.441C25.158 26.517 25.005 26.601 24.885 26.738C24.8118 26.8164 24.7658 26.9164 24.754 27.023C24.7489 27.0994 24.7622 27.1758 24.7928 27.246C24.8234 27.3161 24.8705 27.3779 24.93 27.426C25.175 27.604 25.386 27.5 25.53 27.396C25.6817 27.2793 25.7955 27.1203 25.857 26.939C25.8789 26.882 25.8868 26.8206 25.8801 26.7599C25.8734 26.6992 25.8523 26.6409 25.8186 26.5901C25.7848 26.5392 25.7394 26.4971 25.686 26.4673C25.6327 26.4376 25.573 26.421 25.512 26.419V26.42ZM31.436 26.486C31.406 26.494 31.379 26.505 31.35 26.51L31.453 26.543C31.446 26.521 31.44 26.509 31.436 26.486ZM51.729 27.616C51.7179 27.7531 51.6961 27.8892 51.664 28.023L51.694 28.057C51.759 28.144 51.801 28.247 51.832 28.35C51.8284 28.2502 51.8479 28.151 51.889 28.06C51.8966 28.0456 51.9049 28.0315 51.914 28.018C51.917 27.969 51.94 27.921 51.934 27.873C51.9259 27.8082 51.9345 27.7425 51.959 27.682C51.879 27.648 51.805 27.669 51.729 27.615V27.616ZM79.669 27.908C79.603 27.984 79.598 27.993 79.502 28.104C79.4844 28.1247 79.4646 28.1435 79.443 28.16C79.165 28.369 78.945 28.745 78.82 29.162C78.696 29.579 78.668 30.032 78.709 30.316C78.715 30.358 78.721 30.356 78.73 30.389C78.751 30.365 78.74 30.385 78.764 30.349C78.872 30.193 79.01 29.932 79.162 29.557C79.1695 29.538 79.1785 29.5196 79.189 29.502C79.456 29.062 79.486 28.619 79.559 28.197C79.575 28.102 79.64 28.006 79.669 27.908ZM15.566 28.043V28.883C15.601 28.84 15.626 28.8 15.668 28.753C15.752 28.661 15.906 28.539 16.018 28.433C16.003 28.423 15.975 28.431 15.961 28.42C15.806 28.302 15.69 28.17 15.566 28.043ZM52.543 28.271C52.535 28.324 52.522 28.375 52.512 28.428L52.568 28.412C52.565 28.419 52.566 28.336 52.543 28.272V28.271ZM51.512 28.477C51.498 28.507 51.492 28.539 51.477 28.568L51.541 28.578V28.576C51.5377 28.541 51.5275 28.507 51.511 28.476L51.512 28.477ZM46.965 28.754C46.907 28.874 46.841 28.994 46.764 29.344C46.7582 29.3674 46.7502 29.3902 46.74 29.412C46.8097 29.3474 46.9009 29.3111 46.9958 29.31C47.0908 29.3089 47.1828 29.3431 47.254 29.406C47.206 29.274 47.159 29.115 47.111 29.006C47.05 28.866 47.016 28.833 46.965 28.754ZM46.655 29.537C46.6312 29.5593 46.6047 29.5785 46.576 29.594C46.249 29.777 46.146 29.948 46.129 30.004C46.112 30.06 46.112 30.014 46.121 30.02C46.14 30.032 46.409 30.133 46.645 29.549L46.648 29.551L46.654 29.537H46.655ZM47.377 29.752C47.3724 29.7801 47.3647 29.8076 47.354 29.834C47.344 29.856 47.324 29.856 47.314 29.877L47.33 29.885C47.188 30.128 47.128 30.318 47.115 30.439C47.102 30.561 47.125 30.604 47.146 30.633C47.191 30.691 47.388 30.776 47.75 30.697V30.699C47.787 30.699 47.808 30.688 47.848 30.689C47.8631 30.6901 47.8781 30.6922 47.893 30.695C47.858 30.664 47.813 30.641 47.785 30.605C47.649 30.438 47.545 30.227 47.443 29.945L47.438 29.925C47.418 29.86 47.398 29.815 47.377 29.752ZM84.465 30.16C84.442 30.29 84.26 30.402 84.393 30.572C84.418 30.614 84.428 30.613 84.413 30.602H84.465V30.16ZM30.539 31.268C30.386 31.276 30.229 31.357 29.9 31.465C29.517 32.22 30.353 32.336 30.21 33.225C30.21 33.248 30.208 33.275 30.215 33.318C30.219 33.3447 30.2261 33.3709 30.236 33.396C30.66 33.928 30.692 33.426 31.006 33.346C31.035 33.285 31.063 33.216 31.092 33.133C31.102 33.103 31.109 33.053 31.119 33.02C31.149 33.104 31.177 33.187 31.225 33.26C31.257 33.31 31.297 33.37 31.396 33.426C31.496 33.482 31.698 33.491 31.814 33.42C32.047 33.278 32.019 33.151 32.034 33.06C32.062 32.88 32.044 32.702 31.973 32.504C31.902 32.306 31.739 32.052 31.432 31.99C31.405 31.9851 31.3775 31.9831 31.35 31.984C31.3691 31.9077 31.3677 31.8276 31.346 31.752C31.3126 31.6508 31.2473 31.5631 31.16 31.502C30.842 31.324 30.692 31.259 30.54 31.268H30.539ZM57.863 31.709C57.568 31.665 57.274 31.721 57.066 31.896C56.859 32.072 56.77 32.319 56.74 32.553C56.68 33.02 56.81 33.517 56.984 33.961C57.071 34.183 57.171 34.388 57.279 34.563C57.387 34.737 57.486 34.881 57.666 34.996C57.756 35.053 57.894 35.114 58.063 35.078C58.1378 35.0586 58.2076 35.0233 58.2675 34.9745C58.3274 34.9256 58.376 34.8644 58.41 34.795C58.52 34.572 58.516 34.367 58.498 34.061C58.4923 33.9627 58.4489 33.8703 58.377 33.803C58.115 33.558 58.058 33.398 58.047 33.293C58.035 33.188 58.067 33.093 58.139 32.965C58.21 32.837 58.329 32.722 58.393 32.471C58.4306 32.3122 58.4036 32.1449 58.318 32.006C58.2085 31.8539 58.0463 31.748 57.863 31.709ZM53.969 31.896C53.9149 31.8992 53.862 31.9139 53.814 31.939C53.174 32.272 52.798 32.83 52.941 33.396C53.013 33.68 53.303 33.923 53.617 33.951C53.87 33.974 54.147 33.848 54.439 33.703C54.718 33.768 54.96 33.818 55.141 33.842C55.343 33.868 55.481 33.888 55.661 33.836C55.7236 33.8196 55.7821 33.7906 55.833 33.7507C55.884 33.7108 55.9261 33.6609 55.957 33.604C55.987 33.5424 56.0035 33.4751 56.0052 33.4066C56.0069 33.3381 55.9939 33.27 55.967 33.207C55.891 33.031 55.797 32.967 55.693 32.879C55.277 32.529 54.538 32.135 54.17 31.941C54.1084 31.9079 54.0389 31.8924 53.969 31.896ZM59.539 31.963C59.4927 31.9638 59.447 31.9729 59.404 31.99C59.2597 32.0439 59.1268 32.1243 59.012 32.227C58.8945 32.3316 58.8206 32.4765 58.805 32.633C58.7973 32.7827 58.8491 32.9293 58.949 33.041C59.0263 33.1271 59.1244 33.1918 59.234 33.229C59.3423 33.2677 59.4586 33.278 59.572 33.259C59.7199 33.2355 59.8527 33.1551 59.942 33.035C60.029 32.9041 60.0636 32.7452 60.039 32.59C60.0146 32.4381 59.9616 32.2922 59.883 32.16C59.8491 32.0989 59.7991 32.0483 59.7385 32.0135C59.6778 31.9788 59.6089 31.9613 59.539 31.963ZM50.32 32.016C50.2245 32.0125 50.1311 32.0448 50.0582 32.1066C49.9853 32.1684 49.9382 32.2552 49.926 32.35C49.892 32.625 50.006 32.824 50.102 33.03C49.955 32.852 49.809 32.66 49.604 32.611C49.314 32.544 49.032 32.607 48.775 32.717C48.262 32.936 47.794 33.357 47.425 33.783C47.2534 33.978 47.1013 34.1893 46.971 34.414C46.856 34.618 46.756 34.788 46.779 35.057C46.791 35.191 46.879 35.379 47.033 35.465C47.187 35.551 47.334 35.545 47.459 35.521C47.699 35.478 47.939 35.354 48.264 35.152L48.271 35.148C48.733 34.925 48.997 34.891 49.1 34.906C49.203 34.921 49.224 34.946 49.316 35.086C49.409 35.226 49.515 35.465 49.713 35.703C49.911 35.942 50.225 36.167 50.658 36.248C50.713 36.258 50.77 36.256 50.824 36.242C50.948 36.211 51.268 36.224 51.643 36.283C52.018 36.343 52.454 36.433 52.893 36.477C53.331 36.52 53.777 36.526 54.189 36.365C54.602 36.205 54.952 35.831 55.072 35.301C55.0942 35.2026 55.0768 35.0995 55.0234 35.0139C54.97 34.9284 54.8851 34.8673 54.787 34.844C54.3861 34.7313 54 34.5712 53.637 34.367C53.23 34.138 52.924 33.817 52.902 33.747C52.782 33.351 52.206 33.402 52.156 33.813C52.139 33.958 52.12 34.001 52.1 34.092C52.066 34.046 52.043 34.024 52.006 33.969C51.817 33.687 51.592 33.295 51.346 32.936C51.099 32.576 50.853 32.235 50.471 32.053C50.424 32.0306 50.373 32.018 50.321 32.016H50.32ZM88.5 32.5V38.5H91.5V32.5H88.5ZM8.5 34.5V40.5H11.5V34.5H8.5ZM44.568 36.594C44.566 36.594 44.575 36.59 44.558 36.6C44.5097 36.6316 44.471 36.6758 44.446 36.7277C44.4209 36.7797 44.4106 36.8376 44.416 36.895C44.424 37.03 44.476 37.045 44.512 37.07L44.551 37.059L44.562 37.035C44.554 37.018 44.537 37.006 44.532 36.988C44.5086 36.9243 44.5005 36.8559 44.5085 36.7885C44.5165 36.7211 44.5403 36.6565 44.578 36.6L44.568 36.594ZM54.475 36.598C54.3835 36.6052 54.2977 36.645 54.2331 36.7101C54.1685 36.7753 54.1294 36.8615 54.123 36.953C54.093 37.383 54.293 37.718 54.453 38C54.613 38.282 54.741 38.524 54.758 38.707C54.764 38.763 54.782 38.817 54.811 38.865C55.024 39.227 55.19 39.49 55.322 39.675C55.388 39.769 55.445 39.841 55.502 39.905C55.559 39.967 55.597 40.023 55.722 40.08C55.819 40.1271 55.9307 40.1343 56.033 40.1C56.0904 40.0782 56.1426 40.0448 56.1863 40.0017C56.23 39.9587 56.2643 39.907 56.287 39.85C56.345 39.693 56.318 39.63 56.307 39.559C56.2763 39.3978 56.2298 39.24 56.168 39.088C55.9 38.368 55.371 37.251 54.762 36.698C54.7235 36.6626 54.6782 36.6355 54.6288 36.6183C54.5795 36.6011 54.5271 36.5942 54.475 36.598ZM44.717 36.725C44.713 36.735 44.708 36.737 44.705 36.748C44.7 36.77 44.713 36.784 44.713 36.807L44.74 36.766C44.734 36.75 44.725 36.739 44.717 36.725ZM30.187 36.748C30.058 36.762 29.928 36.808 29.797 36.878C29.5266 37.0319 29.3051 37.2589 29.158 37.533C29.025 37.789 29.014 38.017 29.074 38.145C29.123 38.247 29.338 38.328 29.627 38.381C29.726 38.273 29.833 38.148 29.914 38.076C30.046 37.96 30.15 37.85 30.394 37.846C30.5265 37.8496 30.6525 37.904 30.746 37.998C30.821 38.08 30.846 38.154 30.863 38.218C30.8536 38.0959 30.8876 37.9745 30.959 37.875C31.083 37.707 31.222 37.637 31.418 37.543C31.4528 37.5265 31.4899 37.5154 31.528 37.51C31.266 37.25 30.938 36.889 30.635 36.822C30.6135 36.8172 30.5924 36.8105 30.572 36.802C30.4506 36.752 30.3185 36.7334 30.188 36.748H30.187ZM71.035 38.218C70.672 38.562 70.293 38.852 69.955 39.023C69.7974 39.1059 69.6259 39.1591 69.449 39.18L69.482 39.271C69.597 39.588 69.719 39.953 69.684 40.346C69.6684 40.5587 69.5885 40.7617 69.455 40.928C69.2963 41.1081 69.0844 41.2332 68.85 41.285C68.772 41.3048 68.6898 41.2996 68.615 41.27C68.516 41.23 68.425 41.184 68.326 41.139C68.383 41.223 68.37 41.225 68.446 41.329C68.4845 41.3819 68.5086 41.444 68.516 41.509C68.553 41.841 68.566 42.062 68.546 42.248C68.5413 42.303 68.5305 42.3573 68.514 42.41C68.687 42.559 68.858 42.69 69.024 42.81V42.805C69.074 42.095 69.58 41.31 70.43 40.975C70.4356 40.9194 70.448 40.8646 70.467 40.812C70.574 40.57 70.767 40.39 71.111 40.131L71.117 40.125C71.111 40.095 71.099 40.066 71.094 40.035C71.017 39.59 71.011 39.12 71.242 38.717C71.264 38.6791 71.2925 38.6453 71.326 38.617C71.304 38.603 71.274 38.595 71.256 38.58C71.1478 38.4847 71.0711 38.3588 71.036 38.219L71.035 38.218ZM88.5 41.5V47.5H91.5V41.5H88.5ZM8.5 43.5V49.5H11.5V43.5H8.5ZM70.902 43.596C70.592 43.756 70.311 43.849 70.055 43.867C70.125 43.897 70.204 43.927 70.265 43.955C70.327 43.983 70.383 44.008 70.437 44.039C70.49 44.069 70.545 44.078 70.633 44.213L70.654 44.195C70.757 44.132 70.797 44.132 70.859 44.117C70.921 44.102 71.047 44.087 71.137 44.072C71.0088 43.9432 70.9263 43.7761 70.902 43.596ZM72.293 43.795L72.289 43.801C72.2118 43.9149 72.1169 44.0159 72.008 44.1C72.0456 44.1083 72.0825 44.1201 72.118 44.135L72.152 44.15C72.276 44.08 72.423 44.014 72.619 43.947C72.6502 43.9373 72.6824 43.9316 72.715 43.93C72.679 43.924 72.638 43.923 72.604 43.916C72.5453 43.9059 72.4877 43.8902 72.432 43.869C72.396 43.855 72.346 43.837 72.293 43.795ZM72.41 44.441C72.406 44.448 72.402 44.45 72.4 44.457V44.463L72.451 44.484C72.445 44.478 72.442 44.464 72.438 44.459C72.414 44.437 72.423 44.449 72.41 44.441ZM88.5 50.5V56.5H91.5V50.5H88.5ZM8.5 52.5V58.5H11.5V52.5H8.5ZM8.5 61.5V67.5H11.5V61.5H8.5ZM85 67H95V77H85V67ZM8.5 70.5V73.5H14.5V70.5H8.5ZM17.5 70.5V73.5H23.5V70.5H17.5ZM26.5 70.5V73.5H32.5V70.5H26.5ZM35.5 70.5V73.5H41.5V70.5H35.5ZM44.5 70.5V73.5H50.5V70.5H44.5ZM53.5 70.5V73.5H59.5V70.5H53.5ZM62.5 70.5V73.5H68.5V70.5H62.5ZM71.5 70.5V73.5H77.5V70.5H71.5Z" fill="white"/>
</svg>
