<svg width="85" height="77" viewBox="0 0 85 77" fill="none" xmlns="http://www.w3.org/2000/svg">
<path fill-rule="evenodd" clip-rule="evenodd" d="M2.21852 0.426001C1.93775 0.423306 1.65923 0.476281 1.39905 0.581865C1.13888 0.687448 0.902204 0.843547 0.702713 1.04114C0.503223 1.23873 0.34487 1.4739 0.236805 1.73306C0.128741 1.99221 0.0731072 2.27022 0.0731201 2.551V62.2975C0.0731881 62.7025 0.188996 63.0991 0.406903 63.4405C0.62481 63.7818 0.93574 64.0539 1.30307 64.2244L28.22 76.7279C28.5007 76.8584 28.8064 76.926 29.1159 76.926C29.4254 76.926 29.7312 76.8584 30.0118 76.7279L56.0329 64.6409L82.0539 76.7279C83.4624 77.3824 85.074 76.354 85.074 74.801V15.0554C85.0741 14.6502 84.9583 14.2535 84.7404 13.9119C84.5225 13.5703 84.2115 13.2982 83.844 13.1276L56.9271 0.624051C56.6464 0.493568 56.3407 0.425963 56.0312 0.425963C55.7217 0.425963 55.4159 0.493568 55.1353 0.624051L29.1142 12.7111L3.09317 0.624051C2.81877 0.496448 2.52028 0.428925 2.21767 0.426001H2.21852ZM56.9815 5.33475L60.9629 7.18435C60.8311 7.19115 60.8294 7.3433 60.7674 7.41895C60.9884 7.98845 61.1448 7.67055 61.4754 7.7173C61.5851 7.63315 61.4831 7.5116 61.4856 7.4266L80.8231 16.4102V71.4707L75.8124 69.1434C75.9229 68.7422 76.0725 68.5144 76.1609 68.205C76.177 68.0188 76.0589 67.8684 76.0121 67.7137C75.7962 67.5462 75.7614 67.4281 75.5089 67.1348C74.4677 66.5229 74.1362 65.8063 73.5131 64.89C73.1672 64.6324 73.0431 64.4225 72.7379 64.1641C72.6726 64.0355 72.5791 63.9233 72.4642 63.836C71.8259 63.5708 71.4612 63.1263 71.0099 62.6851C70.9997 62.6681 70.9997 62.6664 70.9997 62.6732C70.5594 61.6753 69.5853 61.2707 68.8636 60.6612C68.9716 60.0577 68.6656 60.2167 68.3885 60.0042C68.1054 60.3382 68.023 60.1274 67.6677 59.9702C67.3489 59.9855 67.1228 59.9277 66.9843 59.9243C66.4012 59.5792 66.2065 59.3633 65.8368 58.9646C65.7892 58.8949 65.756 58.8227 65.6209 58.787C65.116 59.3905 65.0735 59.0769 64.4292 58.555C64.5057 58.5617 64.47 58.5694 64.4411 58.5362C64.3433 58.2965 64.1028 58.1027 63.9872 57.9582C63.0972 58.0517 63.0207 58.0194 62.4869 57.2714C62.4085 57.0711 62.2811 56.8937 62.1163 56.7555C61.4117 56.5906 61.0054 56.4784 60.4699 55.846C59.5944 56.305 59.0725 55.8154 58.3432 55.4133C57.8612 55.2833 57.6598 55.007 57.4082 54.6636C57.3611 54.6499 57.3113 54.6487 57.2637 54.6602L57.143 33.5479C57.16 33.5411 57.1795 33.5454 57.1957 33.536C57.6139 33.0396 57.3308 32.5458 57.1345 32.0588L57.1294 31.298C57.1353 31.2946 57.1277 31.2971 57.1464 31.2895C57.8867 31.0566 58.3075 30.6962 59.0453 30.8398C59.2289 31.275 59.4082 31.7298 59.5451 32.2211C59.5145 32.7056 59.8026 32.6861 60.0678 32.8969C60.6849 33.4068 60.5863 34.3095 60.758 35.0184C61.1065 35.5998 60.7869 35.3279 60.4631 34.987C59.5986 34.8697 60.0542 35.6228 60.4461 36.211C60.6841 36.3878 60.7181 36.6419 60.8447 36.8825C61.4508 38.2314 62.0186 39.1494 63.1542 39.9425C63.875 40.75 64.0127 40.461 64.4802 40.2876C64.2558 39.7963 63.9345 39.5557 63.5197 39.2157C63.1559 39.0117 62.9357 38.863 62.8235 38.7482C62.6901 38.568 63.0003 38.6275 63.0828 38.5714C63.1185 38.7074 63.1593 38.8417 63.2885 38.9199V38.9216C63.3743 38.9735 63.5537 39.0865 63.6795 39.169C64.0263 39.3959 64.1776 39.5285 64.402 39.5574C65.1126 38.812 64.6961 39.6441 64.8941 39.702C64.9094 39.736 64.9451 39.9042 64.9451 39.9756C65.2435 40.6573 65.5002 40.4032 65.9974 40.4516C66.0387 40.4158 66.0718 40.3716 66.0945 40.3219C66.1173 40.2722 66.1291 40.2182 66.1292 40.1635V40.1618C66.1305 40.0276 66.1033 39.8946 66.0493 39.7716C66.0884 39.7342 66.0901 39.7614 66.1921 39.7351C66.8432 39.6246 66.2235 39.3942 66.7913 40.0224C67.1492 40.2646 66.6341 40.0564 66.5278 40.0802H66.5227C66.4671 40.0905 66.416 40.1178 66.3765 40.1584C66.3442 40.6905 66.5865 40.7211 67.054 40.9701C67.7017 41.0636 67.6303 41.2081 68.0349 41.5226C68.074 41.5439 68.3026 41.7181 68.493 41.8949C68.6834 42.0717 68.8755 42.2851 68.9002 42.3233C68.9673 42.393 68.907 42.3718 68.9112 42.4015H68.9095C68.8633 42.455 68.8242 42.5141 68.7931 42.5775C68.7999 43.0042 69.0889 43.0824 69.434 43.2745C69.5258 43.4411 69.6694 43.5465 69.8165 43.6264C69.7446 43.6847 69.6884 43.7601 69.6533 43.8457C69.615 43.9494 69.5938 44.065 69.5938 44.1857C69.5919 44.3591 69.5748 44.532 69.5428 44.7025C69.4612 44.6149 69.3702 44.5155 69.2733 44.4016C68.9835 44.0149 69.0234 43.8431 69.0974 43.419C68.822 43.0883 68.4854 42.9294 68.1165 42.6803C67.6515 42.4678 67.6235 42.58 67.2095 42.8895C66.4233 42.6277 66.0365 42.8189 65.5478 43.0968C65.4755 43.3833 65.1466 43.1479 64.9749 43.1682C64.5031 43.0229 64.096 43.1963 63.8274 43.2252C63.7551 43.3901 63.7509 43.5737 63.7347 43.8993C63.7594 44.7042 63.9957 45.3935 64.0968 46.1398C64.0288 46.6056 64.2456 46.8624 64.4351 47.1879C65.1321 47.646 66.1079 47.697 66.861 47.7089C67.4305 47.822 67.745 48.1441 68.0799 48.519C68.3723 49.1344 68.7854 49.5628 69.2019 50.0048C69.4705 50.7587 69.9032 51.0554 70.5101 51.4192C70.6291 51.4625 70.5016 51.494 70.5016 51.4991C70.1471 51.7949 70.3069 51.9887 70.397 52.3873C70.6257 53.0214 70.726 52.9619 71.3065 52.9101C71.6202 52.531 71.4799 52.3134 71.417 51.9428C70.4225 51.6461 71.4884 51.59 71.7621 51.5756C71.9202 51.2458 72.0443 50.9211 72.2084 50.5964C72.5135 50.0949 72.5824 49.8416 72.5773 49.2134C72.5305 47.4964 71.2241 46.6609 70.9198 45.1742C70.8879 45.0668 70.8488 44.9618 70.8025 44.8597C70.6121 44.6634 70.5619 44.382 70.4548 44.15C70.4353 43.9349 70.3554 43.7904 70.3154 43.6485C70.346 43.6298 70.3792 43.623 70.4038 43.5975C70.6656 43.952 70.9674 44.2843 71.2853 44.6209C71.8284 45.1547 71.8012 44.5911 72.0061 44.5163C71.8786 44.2409 71.6967 43.9995 71.5428 43.7641C71.7553 43.8712 71.9746 43.9375 72.1684 43.8941C72.3809 43.7632 72.3087 44.0327 72.3809 44.1049C72.817 44.7952 73.3176 45.1207 73.6959 45.7148C73.8863 45.867 74.0308 45.6553 74.1608 45.6324C73.8744 44.7654 73.2853 44.1474 72.4659 43.68C72.6512 43.3433 72.3444 43.1895 72.2432 42.9846C71.9712 43.0849 71.797 43.0535 71.6176 43.0127C72.1387 43.0093 71.7842 42.7526 71.78 42.4313C71.559 42.257 71.4604 42.6268 71.3779 42.6778C71.3779 42.8299 71.4425 42.9328 71.5734 43.0059C71.3924 43.0016 71.2513 42.9115 71.1042 42.8682C70.5483 42.444 71.1714 42.6599 71.2402 42.4432C71.4408 41.9791 70.9886 42.0819 70.8416 41.9315C70.4778 42.5851 70.6801 42.3454 69.9006 41.5566L69.0693 40.841C68.5075 41.271 68.7412 40.6998 68.4879 40.5672C67.9023 39.9714 67.8402 40.2077 67.4594 40.1235C67.4297 40.3088 67.2197 40.2119 67.1551 40.2349C67.2155 40.1405 67.3277 40.0887 67.3906 40.036C67.66 39.9391 67.371 39.6662 67.3608 39.4809V39.4792C67.3303 39.386 67.2883 39.297 67.2359 39.2141C66.7174 39.0423 66.1122 38.738 65.5512 38.4881C65.2537 38.563 65.2902 38.1974 65.1593 38.0521C65.218 38.0096 65.3659 37.9756 65.4084 37.9603L65.8529 37.9773C65.9167 37.956 66.4012 38.3776 66.6009 38.5128C66.8474 38.5621 66.9341 38.3538 66.9341 38.1813L66.8406 37.3942C66.8287 37.0346 66.4088 37.1715 66.2915 37.1103C66.2958 37.0075 66.1759 36.7941 66.1734 36.7873C66.5644 36.5501 66.3961 36.4787 66.3604 36.0597C66.2867 35.9511 66.193 35.8576 66.0841 35.7843C65.8113 35.684 66.1011 35.5913 66.1105 35.4689C66.1997 35.0295 65.9209 34.8586 65.7424 34.5892C65.5894 34.1897 65.2715 34.6597 65.1925 34.6716C65.1976 35.9109 65.382 35.7911 64.5584 36.5195C64.521 36.9318 64.1385 36.8927 64.0144 36.9828C63.7084 37.2752 63.5265 37.1418 63.0709 37.1418C62.6952 37.5583 62.7861 37.4885 62.9468 38.166C62.7139 37.8005 62.3858 37.3959 62.1282 37.0806C62.1784 37.0636 62.2222 37.0319 62.254 36.9896C62.3441 36.6895 62.2166 36.3725 62.1546 36.0665C62.0203 35.6049 61.7695 35.3074 61.5222 34.9572C61.2833 34.2577 61.7134 34.8978 61.8656 35.0933C61.8401 35.2921 62.0704 35.5098 62.135 35.6347C62.4538 35.6157 62.7698 35.565 63.0785 35.4834C63.3956 35.3771 63.2936 35.0261 63.3505 34.8289C62.8456 33.6584 63.4015 33.4842 64.4207 33.4383C64.5924 33.4417 64.7411 33.4341 64.8737 33.3915C65.3327 33.4638 65.1712 33.5819 65.2341 34.0392C65.3072 34.4396 65.6591 34.0588 65.7637 34.0648C66.0535 33.6219 65.8657 33.2691 65.7322 32.902L65.7067 32.715C66.1419 32.1242 65.9668 31.5292 65.7586 30.9529C65.6902 30.8006 65.6306 30.6445 65.5801 30.4854C65.9507 30.3154 66.1326 30.482 66.3927 30.5134C66.3765 30.8594 66.3961 31.2002 66.4063 31.5708L66.9392 31.6405C67.1007 31.6609 67.2435 31.6847 67.3855 31.581C67.6974 31.1756 67.4798 30.731 67.3676 30.3307V30.329L67.2741 30.1445L67.2894 30.1395C67.3795 30.1071 67.4594 30.0629 67.5249 30.0068C67.8717 29.6532 67.7034 29.6804 68.3494 29.9074C68.567 29.8776 68.7659 29.7544 68.9665 29.5682C69.7638 28.6562 69.683 28.5755 69.5819 29.8207C69.4216 30.1346 69.3038 30.4685 69.2317 30.8135C69.2742 31.938 69.1101 31.026 68.7735 31.3532C68.4378 31.74 67.9711 31.5105 67.5266 31.5555C67.1126 31.6474 67.1993 31.9737 67.0769 32.1752C67.258 32.3435 67.3175 32.6002 67.4271 32.9121C68.0621 32.6826 68.7591 32.7651 69.5572 32.8356C69.8615 32.7982 69.8845 32.4582 69.9958 32.2891C70.0494 31.9653 70.1386 31.1696 70.1429 31.122C70.5662 31.0625 70.8951 30.9197 71.1858 30.7905C71.298 30.765 71.3728 30.6936 71.4493 30.6222C71.5046 30.6537 71.5598 30.6877 71.6125 30.6919C72.097 30.8305 71.8539 30.2244 71.8879 30.1581C71.848 30.1204 71.7996 30.0929 71.7468 30.0778C71.694 30.0627 71.6383 30.0605 71.5845 30.0714C70.6962 30.3358 70.7855 30.0868 70.2942 29.7264C69.9185 29.1705 70.6189 29.1381 70.7141 28.9613C70.6597 28.2431 70.4846 27.4229 70.414 26.799C70.1658 26.2057 69.417 26.079 68.941 25.7169C69.3864 25.4542 69.7315 25.2094 70.142 24.9179C70.567 25.0964 71.0566 25.3208 71.5658 25.518C71.5675 25.6175 71.6057 25.739 71.6848 25.8163C71.9653 26.0441 72.3792 26.09 72.6903 26.1768C72.7385 26.1633 72.7831 26.1391 72.8206 26.106C72.8582 26.0729 72.8877 26.0317 72.9071 25.9855C72.7056 25.5231 73.0057 25.643 73.2114 25.3038C73.3958 25.28 73.3389 25.4585 73.3729 25.4976C73.6559 26.0739 73.3227 26.0161 73.1876 26.3527C72.6096 26.7896 72.7099 26.9248 72.5059 27.4484C72.4974 27.7612 72.5314 28.1725 72.6053 28.6451C72.7065 29.3217 72.6487 28.9758 72.4311 29.5546C72.5501 29.9389 72.8561 29.6711 73.0737 29.6966C73.3397 29.3226 73.5879 29.292 73.8701 29.0803C73.8659 28.7395 74.0716 28.8466 74.2203 28.6732C74.2645 28.3969 74.4294 28.2652 74.5408 28.0408C74.6241 27.8113 74.5297 27.5852 74.5161 27.3736C75.3279 26.719 74.9947 27.0769 75.5786 27.2444C76.1498 27.3974 76.7941 27.0353 77.3483 27.0531C77.5481 27.4186 77.8107 27.0064 77.9408 26.9936C78.0258 26.7896 77.9748 26.6009 77.8991 26.3136C77.5413 25.8801 78.2153 25.9226 78.2332 25.9014C78.614 26.1428 78.7398 26.5746 79.033 26.9418C79.4606 27.0234 79.1665 27.1713 79.2906 27.3838C79.3705 27.632 79.549 27.7339 79.6943 27.9192C80.1457 28.3816 80.0522 27.6813 80.1593 27.609C80.1797 27.1704 79.8813 27.1908 79.6425 27.0064C79.7521 26.6664 79.9187 26.6137 80.1057 26.3162C80.0972 25.592 79.6025 25.1635 79.1002 24.6824C78.3046 23.3904 77.4121 22.3773 76.2212 21.5817C74.086 21.132 74.3274 19.9318 72.8391 19.2017C72.0953 18.7835 71.8837 18.0941 71.3881 17.5272C70.1301 17.0597 69.8794 14.2997 71.0286 15.8187C71.6516 16.3754 71.6618 16.1085 72.0205 15.7328C71.8308 15.4561 71.6211 15.1936 71.3932 14.9474C71.2556 14.8204 71.1042 14.7092 70.9419 14.6159C70.3911 14.0609 69.8233 13.5169 69.1917 13.1692C68.5007 13.1233 68.6027 13.2687 68.2805 13.6044C68.4845 14.2853 68.9367 14.8582 69.2555 15.2815C69.2155 15.913 69.0974 16.4494 68.9716 16.9449C67.7391 16.0839 67.4458 15.8952 66.9707 14.3448C66.8177 14.2538 66.7029 14.111 66.5737 13.998C65.9787 13.4463 66.0722 13.7625 65.7458 14.1076C65.2273 14.0209 65.4738 13.8152 65.3268 13.6529C65.0548 13.2015 64.6238 13.0621 64.2345 12.8709C64.164 12.8641 64.1725 12.8564 64.1835 12.8675C63.4585 12.1237 64.0322 12.02 64.2685 11.2202C64.2082 10.5079 63.8129 9.8661 63.2222 9.5601C62.9757 9.43345 62.7955 9.1181 62.6578 8.95405V8.95235C62.4546 7.96635 62.0075 7.81845 61.2799 8.30805C61.1133 8.6795 60.9374 8.71605 60.7087 8.9345C60.5583 8.9039 60.4818 8.81805 60.3636 8.756C59.6836 8.2715 58.8421 8.4228 58.089 8.5435C57.6266 9.29405 57.9717 9.44025 57.0027 9.17505L56.9815 5.33475ZM54.4332 5.63565L54.4366 6.06915C53.4812 6.94805 52.4442 7.96975 51.8254 8.88775C51.2559 9.85335 51.0952 10.9669 50.8207 11.8313C50.7824 12.0421 50.7008 12.2181 50.6252 12.4374C50.7255 12.8479 51.1182 12.9865 51.3689 13.2619C51.9495 13.0749 52.0183 13.2075 52.4374 13.4149C52.1416 13.5084 51.9036 13.7838 51.7064 13.9665L51.7038 13.9631C51.2873 13.7719 51.2389 13.9971 50.9337 14.2691C50.9235 14.2861 50.9116 14.3006 50.8997 14.3184C50.9065 14.0838 50.6328 14.0761 50.5257 13.9784H50.5232C50.4526 13.9607 50.3782 13.9658 50.3107 13.9929C49.7862 14.4893 49.9426 14.6389 50.19 15.1183C50.1364 15.1914 50.0829 15.2628 50.037 15.3308C49.6936 14.7893 49.2873 15.1251 48.9014 15.3053C48.949 15.6087 48.9643 15.766 49.0612 16.1179C49.2822 16.2989 48.9991 16.4392 48.9864 16.508C48.9864 16.48 49.0204 16.4511 49.0178 16.423C49.0022 16.2775 48.9409 16.1408 48.8427 16.0323C48.7445 15.9239 48.6145 15.8494 48.4713 15.8195C48.2908 15.7715 48.1146 15.709 47.9443 15.6325C47.4768 15.6308 47.2949 15.4685 46.9379 15.3656C46.8231 15.4685 46.8214 15.2551 46.7313 15.1701C46.5494 14.9661 46.2366 15.0426 46.0547 15.0086C45.6527 15.1531 45.4436 15.3223 45.1265 15.5169C44.9684 15.9878 44.4091 16.2666 44.0708 16.729C43.1061 18.202 42.823 19.398 42.16 20.7478C41.8829 21.2799 41.4962 21.8154 41.197 22.2838C40.7422 23.0224 40.97 23.8903 41.2412 24.5677C41.3003 24.6225 41.3753 24.657 41.4554 24.6663C41.7869 24.3951 41.6177 25.2621 41.7044 25.6038C41.7563 25.8138 41.5081 25.8869 41.4392 25.9864C40.6963 26.9605 40.7252 27.1067 39.9135 25.9243C40.0588 25.2435 39.7248 25.104 39.4154 24.8193C38.7847 25.1168 38.7379 25.6667 38.6563 26.2481C38.9258 26.532 38.5033 26.5482 38.4209 26.7114C38.1914 26.8465 38.1829 27.1211 38.0894 27.3005C37.7349 27.496 37.8454 27.7509 37.825 28.0654C37.8718 28.1776 37.7715 28.215 37.7315 28.323C37.5853 28.6035 37.9262 28.7216 37.9908 28.8542C38.2883 28.8644 38.5093 28.5882 38.6733 28.4726C38.8093 28.3621 38.8229 28.2516 38.9028 28.1453C38.9946 28.2796 38.8348 28.3621 38.7583 28.6026C38.7031 28.6689 38.7371 28.7472 38.7269 28.8169C39.1502 29.0039 38.8187 29.0693 38.9436 29.4237C39.0167 29.7136 39.3219 29.5402 39.4587 29.5818C39.6729 29.7391 39.6041 30.0357 39.6398 30.2822L39.083 30.5015C38.726 30.5967 38.4311 30.8466 38.1701 31.0201C38.0044 31.2393 37.9984 31.5292 38.0044 32.0401C38.0112 32.641 37.995 32.9121 38.0588 33.1246C38.0724 33.4816 38.4617 33.247 38.5841 33.2836C38.256 33.9644 37.893 34.539 37.7018 35.2947C37.457 35.9237 37.1952 35.6219 36.5917 35.9552C36.4659 36.2323 36.4965 36.4422 36.5432 36.6453C36.7158 36.7133 36.7974 36.6224 36.9555 36.6011C36.5339 37.1485 36.454 37.7877 36.4472 38.4006C36.5509 38.8052 36.5194 39.0466 36.318 39.3934C36.2655 39.471 36.2299 39.5587 36.2134 39.6509C36.2028 39.7139 36.2139 39.7787 36.2449 39.8345C36.2687 39.877 36.3086 39.9068 36.3494 39.9297L36.346 39.9161C36.3443 39.9144 36.352 39.9459 36.4225 39.9612C36.3969 39.954 36.3723 39.9434 36.3494 39.9297C36.352 39.9374 36.3545 39.9433 36.3545 39.9544C36.3545 40.1116 36.4293 40.1941 36.5075 40.2817C37.1918 40.9421 37.7587 41.283 38.6937 41.2659C38.7872 41.215 39.1221 41.0398 39.4324 40.8792C39.7639 40.7066 40.1778 40.4261 40.4065 40.2136C40.6547 39.9824 40.84 39.8541 40.9394 39.8167C41.1009 39.7912 41.259 39.9595 41.3848 40.0156C41.5234 40.0207 41.6279 39.9595 41.7384 39.8864C41.905 39.7223 41.8124 39.9518 41.8464 39.9807L41.7826 40.3777C41.4766 40.6735 41.8226 40.7636 41.8489 41.0271C41.9212 41.1146 42.013 41.2022 42.1167 41.2787C42.404 41.4937 42.5595 41.7581 42.6012 42.0879C42.6182 42.2239 42.6581 42.4024 42.7006 42.5308C42.7132 42.619 42.6946 42.7089 42.6479 42.7849C42.4779 43.0798 42.3623 43.4887 42.3062 43.8491C42.2773 44.01 42.2665 44.1737 42.2739 44.337C42.2365 44.5724 42.4975 44.6829 42.5502 44.7637C42.5825 44.8062 42.625 44.8801 42.6675 44.9745C42.7525 45.164 42.8366 45.4386 42.8953 45.748C42.931 45.9367 42.9803 46.1194 43.0296 46.2682C43.1401 46.5682 43.333 46.7952 43.5047 47.0417C43.6042 47.3528 43.7002 47.6792 43.7699 47.9427C43.9025 48.0702 44.1184 48.1144 44.3054 48.0328C44.5791 47.9129 44.9667 47.6758 45.3271 47.4284C46.0794 47.0136 46.4517 46.2809 46.8078 45.6052C47.0713 44.9473 47.311 44.3123 47.6646 43.7463C47.8117 43.4232 47.8593 43.0186 47.7267 42.6871C47.8253 42.2196 48.3217 41.7623 48.5928 41.4547C49.017 40.801 48.847 40.064 48.7059 39.4095C48.5512 38.7066 48.8895 38.1167 49.0892 37.684C49.8185 36.6674 50.4747 35.5642 50.9184 34.454C51.2389 33.4315 51.0238 33.6772 50.4849 33.5046C51.3366 32.8127 52.0617 31.8335 52.6142 30.9181C52.7765 30.663 52.8692 30.4344 52.8275 30.2041C52.7034 29.6532 52.3821 29.9159 53.1667 29.6048C53.5747 29.2163 53.8824 29.4441 54.1697 29.4501C54.287 29.5886 54.4451 29.7051 54.5726 29.8224L54.7171 55.4099C54.4791 55.5026 54.3193 55.6292 53.9699 55.7635C53.0689 56.2004 52.6677 56.1902 52.0319 55.88C51.1768 55.8205 50.7399 56.4172 50.4288 57.0173C49.7599 57.546 49.0926 58.1478 48.5163 58.9434C48.1967 59.705 47.5371 59.7101 46.8716 59.8163C46.9362 60.096 46.5826 60.0773 46.4296 60.2158C45.509 61.2902 44.8231 61.6353 43.5047 61.7849C43.2268 61.5979 43.0814 61.9745 42.9403 62.0459C42.6411 62.5746 42.1379 62.7098 41.6305 62.9571C41.0372 63.4671 40.7584 63.2138 40.3172 62.9996C39.7851 63.1058 39.6848 63.626 39.5131 64.0417C38.5815 64.7132 37.9695 65.1008 37.4068 66.1233C37.3768 66.1969 37.3389 66.2671 37.2938 66.3325C36.9393 66.6376 36.4931 67.1569 36.1233 67.5309C35.9117 68.3342 35.6176 68.675 35.2997 69.151C35.2036 69.2938 35.105 69.457 35.0362 69.5947L34.9614 69.7426L30.3722 71.8745C30.3442 70.4022 30.294 61.9099 30.243 52.0984C30.5252 51.8416 30.8763 51.4693 31.1559 51.2118C31.4738 51.0078 31.6464 50.7979 31.8223 50.4086C32.1946 49.3707 32.2346 48.4161 32.6723 47.5576C32.8602 47.2193 32.9715 47.0094 33.0378 46.8181C33.1024 46.626 33.1101 46.4543 33.0973 46.2648C32.9129 45.5627 32.5083 45.7259 31.8589 45.6358C31.3055 45.7888 30.7556 45.7837 30.2133 45.6851C30.1844 39.7393 30.1538 33.5114 30.1334 28.708C30.4683 28.5159 30.6655 28.7395 30.8627 28.7667C31.6472 28.623 31.6608 28.0765 31.7722 27.3923C31.8997 26.7207 32.2023 25.9303 32.4972 25.2681C32.9596 24.957 33.3387 24.4402 33.5538 23.8503C33.7068 23.3488 34.119 23.0751 34.4463 22.7963C34.731 22.5617 35.0804 22.169 35.3728 21.7924C35.7026 21.5086 35.791 21.0564 35.8972 20.7546C36.2525 20.4597 35.9618 19.3742 35.9482 19.0725C35.8624 18.5599 36.1777 18.2871 36.2262 17.7609H36.2296C36.261 16.4349 36.8246 15.3903 36.6945 14.2751C36.4183 14.1782 36.5925 14.0711 36.533 13.9512L42.7686 11.0544C42.7933 11.1054 42.8358 11.1479 42.8621 11.1836C43.7861 12.2121 43.7929 11.9223 44.1456 10.8283C44.5859 10.2027 45.2906 10.6209 45.6127 9.73265L54.4332 5.63565ZM4.32312 5.8813L15.1011 10.887C14.7118 11.1275 14.4832 11.5296 14.2554 11.8942C14.6319 12.3362 14.8929 12.598 15.2023 13.0281C15.4114 13.0434 15.3493 13.2177 15.4182 13.3052C15.8398 14.0388 16.3821 14.5462 17.0748 14.7154C17.7115 14.774 17.9843 14.899 18.5343 15.0979C19.091 14.6355 18.6422 15.1608 18.9652 15.3478C19.2925 15.5662 19.6665 15.8195 19.9512 16.0346C20.0753 16.242 20.117 16.3372 20.2122 16.4298C19.896 16.2641 19.2236 16.1179 18.8862 16.0601C18.859 16.253 18.7247 16.6126 18.5292 16.5242C18.5088 16.4179 18.5802 16.2097 18.6057 16.0601C18.6456 15.783 18.3048 15.7031 18.1688 15.5679C17.8628 15.4897 17.4658 15.6529 17.2992 15.7065C16.6447 15.5101 16.5002 15.1123 16.1857 14.5768C15.9537 14.1076 15.5992 13.8339 15.2354 13.5313C15.161 13.4141 15.0646 13.3125 14.9515 13.2321C14.3973 12.7655 14.2664 13.0723 13.8805 13.1463C13.9196 14.066 13.5924 14.7205 13.9434 15.4923C14.167 16.174 14.2919 16.1519 14.8733 16.1706C15.4097 16.2913 15.3374 16.95 15.4131 17.2883H15.3748C15.2402 17.1447 15.0966 17.0098 14.9447 16.8846C14.7433 16.7945 14.575 16.6194 14.45 16.5293C14.1194 16.1969 13.9128 15.9768 13.6612 15.6946C13.2864 15.5671 12.818 15.6096 12.3752 15.6495C12.0624 15.7192 11.8864 15.7277 11.7989 15.7005C10.8613 14.5139 9.19362 13.5619 8.36062 12.6779C7.64407 11.8628 7.23267 12.0693 6.45832 12.0914C5.86672 12.6499 5.74347 12.6278 5.15442 12.8505C5.40092 13.6537 5.38137 13.9359 4.99292 14.5802C5.14847 15.3316 5.45277 15.6053 5.94832 16.0099C6.25602 16.1595 5.80467 16.1298 5.70437 16.2139C5.26747 16.6704 5.16972 16.9645 4.98697 17.4413C5.02012 17.8119 5.35672 17.8468 5.54287 17.9836C6.32742 18.3415 6.30957 18.8251 6.81192 19.2637C6.65552 19.5417 5.49782 19.7924 4.99292 20.0857C5.03287 20.5447 5.30742 20.3398 5.57942 20.441C5.74602 20.2344 5.99167 20.3899 6.17952 20.3678C7.07372 20.5438 7.66447 19.9131 7.60157 20.7733C8.10902 20.6807 8.37677 20.3509 8.65302 20.0525C8.82727 19.2076 10.0555 20.1758 10.3097 20.384C10.4856 20.4741 10.699 20.673 10.9897 21.0649C11.6374 21.6837 11.9119 22.2846 12.3157 22.9527C12.5639 23.1992 12.2145 23.2919 12.1474 23.5188C12.161 24.09 12.4551 24.4147 12.7305 24.787C13.351 24.7692 13.1062 24.9723 13.1402 25.405C13.379 25.9235 13.725 26.4505 13.9324 26.8304C13.9562 27.0242 13.9647 27.354 13.9706 27.9294C13.8695 29.7875 14.6795 30.9597 15.5754 32.4752C15.9409 32.8271 15.8355 33.3099 15.8831 33.5607C16.3243 34.2356 16.6515 35.021 17.1947 35.6245C17.9172 35.8625 18.1229 37.0117 18.9958 37.928C19.5611 38.4975 19.8314 38.7321 20.128 38.8222C20.3193 38.88 20.3881 38.9344 20.5828 39.2072H20.5845C20.7511 39.4418 21.0596 39.7699 21.3095 39.9841C21.9385 40.8894 22.5114 41.6799 23.3121 42.4398C23.8595 42.977 23.7694 43.045 23.2688 43.5601C23.2263 43.6553 23.1336 43.7284 23.0682 43.8108C23.0945 44.2069 23.007 44.5843 22.9364 44.9243C23.0342 45.3 23.2127 45.6349 23.3682 45.9358C23.857 47.1717 24.2837 48.0736 25.0053 48.9406C25.4864 50.5777 24.7869 52.6339 24.486 54.3262C24.5217 55.0632 24.3185 55.721 24.2599 56.0313C24.2212 56.072 24.1913 56.1201 24.1719 56.1727C24.1524 56.2253 24.1439 56.2813 24.1468 56.3373C24.6101 56.9918 24.3466 57.6854 24.6228 58.9128C24.9458 59.2281 24.9433 59.5392 25.075 59.841C25.3241 60.1614 25.7474 60.3119 26.0814 60.487C26.4197 60.7938 26.5744 60.4751 26.7903 60.453C26.6705 60.0484 26.3764 59.6973 26.1673 59.297C25.9437 59.002 26.146 58.6263 26.1443 58.4997C26.2497 58.3093 26.4648 58.0738 26.69 57.7976C26.2523 56.9884 26.6679 56.9535 27.0836 56.4996C27.0147 56.1095 27.2043 56.248 27.3309 55.9828C27.3292 55.6496 27.5944 55.8995 27.7313 55.8553L27.7823 64.7803C27.7185 64.7871 27.6539 64.7837 27.5936 64.7956C26.8048 65.0149 26.3883 65.5114 25.88 66.0026C25.9378 66.794 26.0355 67.0269 25.3343 66.5381C24.7104 66.7209 24.4928 67.0218 24.2021 67.3669C24.0814 67.4927 24.2548 67.6202 24.2735 67.7069C23.857 68.4566 23.0988 68.0809 22.463 67.644C21.7677 67.1017 21.25 66.8697 20.5411 66.5951C20.5156 66.5713 20.4901 66.5144 20.4332 66.3325C20.0711 65.7374 19.7166 65.6839 18.904 65.4399C18.6337 65.326 18.5377 65.649 18.3966 65.7298C18.1764 66.3231 18.4926 66.488 18.6788 66.8603C18.6652 66.9963 18.6133 67.1059 18.5088 67.1425C18.4952 66.7277 18.2266 66.7948 17.986 66.618C17.8279 66.6096 17.6783 66.6265 17.5466 66.63C16.8487 65.751 15.7148 65.2317 15.0527 64.6554L14.025 63.7578L13.702 64.0417H13.6995C12.7449 63.9168 11.6085 63.9363 11.0951 64.0867L4.32312 60.94V5.8813ZM54.4451 7.53455L54.4646 10.9278L54.4281 10.9261C53.8671 10.9388 53.9971 10.9014 53.7608 11.4828C53.89 11.816 53.822 12.122 53.8518 12.4569C53.8696 12.5326 53.941 12.5895 54.0065 12.6448C53.76 12.5691 53.4684 12.5173 53.21 12.5428C52.5181 12.6584 52.292 12.2776 52.02 11.9376C52.366 10.1033 53.2151 8.7645 54.4451 7.53455ZM17.3732 11.9444C17.8738 12.1739 17.8288 12.2801 17.9809 12.7825C18.0209 13.25 18.462 12.8862 18.5487 12.9057C18.5402 12.7782 18.6176 12.6592 18.6516 12.5368C19.2041 12.8131 19.7336 13.2933 20.0447 13.5543C19.6937 13.5415 19.805 13.5849 19.5517 13.618C19.5076 13.6188 19.4644 13.6314 19.4268 13.6546C19.0987 13.5475 18.9151 13.3945 18.6703 13.2891C18.5309 12.9338 18.2444 13.284 18.1237 13.2823C18.0892 13.35 18.0734 13.4257 18.0778 13.5016C18.2113 13.6461 18.2648 13.8492 18.2852 14.0609C18.6966 14.2241 18.2963 14.1858 18.298 14.2071C18.2963 14.1586 18.2895 14.1093 18.2852 14.0609C18.2844 14.06 18.2827 14.0609 18.2818 14.0592C18.1608 13.9186 18.0886 13.7427 18.0761 13.5577C18.0744 13.5381 18.0778 13.5203 18.0778 13.5016C18.0361 13.4533 17.986 13.413 17.9299 13.3826C17.8789 13.3562 17.867 13.3426 17.8602 13.3367C17.8534 13.3656 17.8628 13.3902 17.85 13.42C17.854 13.3883 17.8511 13.3561 17.8415 13.3256C17.848 13.3289 17.8542 13.3326 17.8602 13.3367C17.8766 13.2725 17.8771 13.2053 17.8617 13.1409C17.8463 13.0764 17.8155 13.0167 17.7718 12.9669V12.9652C17.7761 12.9695 17.7786 12.9057 17.7574 12.955C17.6197 12.173 17.1989 12.5717 16.8504 12.7476C16.5334 12.1586 16.8929 12.1203 17.3732 11.9444ZM20.9483 13.6044L21.4591 13.8424C21.3597 14.0379 21.5382 14.253 21.5739 14.4391C21.562 14.4893 21.4319 14.5981 21.3614 14.6771C21.2628 14.5386 21.1531 14.4043 20.9848 14.3643C20.9287 14.3516 20.8794 14.3176 20.8182 14.179C20.2377 13.794 20.8497 14.0473 20.9228 13.7438C20.9406 13.7013 20.944 13.6529 20.9483 13.6044ZM24.5438 15.2747L25.0623 15.5152C25.4082 16.1179 25.268 16.1281 25.1898 16.6644C25.6513 17.4838 25.6972 17.9845 26.4597 18.537C26.9909 18.4843 27.1652 18.6168 27.5205 18.9985L27.5834 29.9703C27.4304 29.4348 27.2476 28.9061 27.0139 28.3451C26.1766 27.5079 26.3211 29.105 25.9318 27.7339C25.8808 27.6319 26.0381 27.5325 26.0908 27.4322C26.1758 27.4985 26.2157 27.5401 26.3186 27.5742C26.9501 26.7055 27.1167 26.3119 27.5468 25.3404C27.5069 25.1245 27.3794 24.9256 27.1652 24.5991C27.0806 24.4728 27.0034 24.3417 26.934 24.2064C26.9748 23.9667 26.7045 23.9277 26.6144 23.818C26.2353 23.4066 26.4665 23.1992 26.3696 22.6586C26.0882 21.9574 25.5731 21.2757 25.1796 20.7062C24.7571 20.3169 24.5489 19.6369 24.333 19.1362C24.1706 18.843 23.8782 18.5752 23.5646 18.3661C23.1285 18.2896 22.7367 17.9411 22.5565 17.8425C22.2981 17.5263 21.454 17.67 21.4515 17.67C21.4243 17.5 21.4498 17.2169 21.5288 17.1974C21.9851 17.4471 22.4485 17.6835 22.9186 17.9062C23.3011 18.214 23.3742 17.9148 23.647 17.874C23.732 17.33 23.7745 17.1651 23.494 16.6313C23.5663 16.6278 23.6232 16.6483 23.7065 16.6338C23.8425 16.6109 23.9632 16.5777 24.0627 16.4799C23.9437 15.7872 24.2097 15.7269 24.3687 15.3622C24.4341 15.35 24.4948 15.3197 24.5438 15.2747ZM44.353 20.8906C44.404 20.8609 44.2893 21.3173 44.3292 21.8519C44.3241 22.0857 44.614 22.0755 44.7245 22.1622C44.7313 22.2013 44.4814 22.6892 44.4125 22.815C44.4057 22.9 44.3615 22.9774 44.336 23.059C43.8294 22.9935 44.3122 22.8549 44.2782 22.566C44.2918 22.3322 44.2332 22.0781 44.0419 21.9021C43.9824 21.8468 43.9569 21.7712 44.0164 21.5562C44.2332 21.1014 44.3224 20.9085 44.353 20.8906ZM77.8796 21.4338C77.2633 21.5715 77.5294 21.9438 77.4529 22.1562C78.2502 22.6518 78.2434 22.1716 78.4941 21.9268C78.2476 21.5528 78.0615 21.4168 77.8796 21.4338ZM23.2654 21.5978L23.2705 21.5995C23.375 21.6531 23.4753 21.693 23.568 21.716C23.7167 21.6565 23.7108 21.8086 23.7737 21.8486C23.84 22.0075 23.8825 22.243 23.8782 22.2736C23.8408 22.8431 23.7558 23.1133 24.1672 23.6038C24.3041 23.716 24.4792 23.5962 24.5871 23.5936C24.8064 23.7908 24.3058 24.1342 24.2811 24.1665C23.8672 23.8138 23.8689 24.2413 23.6292 24.3493C23.6496 24.4275 23.5382 24.4836 23.4932 24.5515C23.4509 24.5005 23.4136 24.4456 23.3818 24.3875C23.2909 24.0645 23.0988 23.869 22.8055 23.4627C23.3436 23.2782 23.33 22.77 23.4099 22.35C23.4167 21.9718 23.3495 21.7882 23.2654 21.5978ZM36.9631 22.1656C36.6248 22.3093 36.4072 22.4529 36.1114 22.6586C35.7825 22.9842 35.6898 22.7759 35.3328 22.8116C34.941 23.0709 34.8908 23.4678 34.765 23.8401C34.986 24.1418 35.1543 24.5065 35.3532 24.8457C35.6601 24.7097 35.995 24.6841 36.3137 24.6544C36.3807 24.6285 36.4419 24.5896 36.4938 24.54C36.5457 24.4904 36.5873 24.4311 36.6163 24.3654C36.9053 24.0518 37.2079 23.6548 37.4578 23.2978C37.6856 22.6603 37.3847 22.5226 36.9631 22.1656ZM44.0742 24.2728L44.0623 24.2923C43.9357 24.2804 43.8056 24.3187 43.6883 24.3306C43.7223 24.2447 43.7444 24.0959 43.7699 23.9701C43.9365 24.0381 44.1329 23.8308 44.2247 23.7951C44.2578 23.8325 44.1601 24.1028 44.0742 24.2728ZM21.6385 24.1495C21.7022 24.1232 21.777 24.2192 22.0184 24.6561C22.9033 24.9086 22.1884 24.9154 22.3627 25.2707C22.6712 25.7781 22.8064 25.5818 23.2458 25.3701C23.3784 24.9145 23.4915 25.4169 23.5646 25.4313C22.933 25.3888 23.4388 25.5197 23.1056 25.7535C23.0784 26.2694 23.4014 26.1079 23.6071 26.2745C23.704 26.119 23.6419 26.4088 23.6538 26.4556C23.738 26.952 23.5484 26.9451 23.3988 27.2758C23.6105 27.705 23.7303 28.0544 23.8519 28.5703C23.6164 28.6341 23.5136 28.8653 23.3674 28.9953L23.2569 28.9341C23.3606 28.6188 23.1251 28.4717 23.0529 28.255C22.5259 27.9464 22.1714 27.5189 21.9071 27.1798C21.5076 26.9273 21.2713 26.4921 21.0511 26.2269C21.0103 25.9685 20.9151 25.7407 20.7324 25.5954C20.5114 24.9851 20.8947 24.7377 21.3214 24.3841C21.522 24.3272 21.5747 24.1767 21.6385 24.1495ZM50.8309 25.9345C50.8054 26.1614 50.9669 26.3553 51.0213 26.527C51.1071 26.6426 51.0638 26.7616 51.085 26.8839C51.0111 26.9247 50.9405 26.9707 50.8725 27.0285C50.8623 27.0344 50.6974 26.9723 50.6294 26.9502C50.7 26.6995 50.7909 26.6825 50.8759 26.5406C50.9728 26.3051 50.6838 26.1555 50.6099 26.0076C50.3234 25.8087 50.3549 25.5214 50.2512 25.2554C50.4399 24.9213 50.7204 25.7755 50.8309 25.9345ZM24.5574 25.4594C24.6653 25.575 24.7843 25.7781 24.8991 26.0713C25.0784 26.3144 24.6747 25.9252 24.605 25.8793C24.4623 25.8022 24.3233 25.7185 24.1885 25.6285C24.191 25.6251 24.197 25.6285 24.2004 25.6243C23.9794 24.8117 24.2871 25.5835 24.5574 25.4594ZM47.8542 26.5984C47.9749 26.5975 48.1525 26.6434 48.3999 26.7598C48.3047 27.0557 47.4938 27.1135 47.1929 27.1526C46.8758 27.4178 46.5511 27.8334 46.2621 27.8563C46.3556 27.4509 46.5588 27.0794 46.7517 26.685C47.0926 27.0862 47.2022 26.8244 47.5592 26.7309C47.6612 26.6323 47.7343 26.5992 47.8542 26.5984ZM74.8034 28.3731C74.759 28.3812 74.7172 28.3996 74.6812 28.4267C74.6451 28.4539 74.616 28.4891 74.596 28.5295C74.5433 28.9316 74.8578 29.0939 75.0278 29.3064C75.4639 29.4807 75.2208 28.9035 75.2879 28.7624C75.3559 28.4913 74.9326 28.4717 74.8034 28.3731ZM45.7241 29.8267C46.025 29.9771 46.3352 29.8122 46.5936 29.751C47.4895 29.241 47.3671 29.6099 47.0356 30.34C46.2111 30.703 45.1257 30.9801 44.336 31.247C44.0623 32.1709 43.5787 31.8981 42.7924 31.876C42.727 31.9057 42.6802 31.8989 42.6224 31.9023C42.6335 31.8666 42.6607 31.8335 42.6675 31.7961C42.687 31.6949 42.6947 31.5878 42.693 31.4841C42.7414 30.9427 42.4006 31.1424 42.2085 30.9826C42.4193 30.7183 42.3844 30.4004 42.4125 30.1029C43.2404 29.6235 42.857 30.2984 42.8902 30.3375C42.2926 30.8007 42.6012 30.8024 42.9267 31.1688C43.1001 31.1858 43.2616 31.1671 43.3985 31.0872C43.6084 30.8126 43.6407 30.7055 43.7929 30.4004C44.223 29.2342 44.4287 30.5092 45.311 29.9303C45.2132 28.9392 45.5728 29.8649 45.7241 29.8275V29.8267ZM41.6679 30.9444C41.7087 31.0413 41.8251 31.0914 41.9203 31.1008C41.8923 31.1144 41.8693 31.1229 41.8396 31.139C41.3262 31.4025 40.8714 31.7069 40.4099 32.0103C40.3342 32.0639 40.3002 32.1021 40.2373 32.1497C40.1999 31.4442 40.6147 31.7001 40.7388 31.5742C41.2386 31.4009 41.0159 31.1815 41.0924 30.8866C40.8655 30.1114 41.1791 30.4004 41.5633 30.0468C41.7461 29.8139 41.6483 30.6979 41.6679 30.9444ZM6.86887 30.0298C6.38267 30.3468 6.78302 30.5373 6.89267 30.6477C7.13152 30.9529 7.31257 31.2818 7.48427 31.6133C7.88207 32.057 7.92967 31.5649 8.13962 31.5122C8.14812 31.383 8.04782 31.2937 8.00532 31.1934C7.81067 30.833 7.48427 30.5457 7.23012 30.289C7.10432 30.1921 6.98022 30.1105 6.86802 30.0298H6.86887ZM76.2425 30.0298C75.86 29.9737 76.098 30.4233 76.0648 30.5117C76.1422 30.6647 76.3309 30.6426 76.4422 30.697C77.1086 30.6749 76.4788 30.1989 76.4822 30.091C76.409 30.0499 76.3264 30.0288 76.2425 30.0298ZM76.9531 31.094C76.9225 31.179 76.9386 31.315 77.0117 31.3915C77.6858 31.5666 77.3577 31.2768 77.5226 30.9597C77.3067 30.6647 77.0661 31.0676 76.9531 31.094ZM78.1601 31.4408C77.9025 32.0273 78.2842 32.0026 78.5723 32.1862C78.9013 32.1063 79.1945 32.2967 79.5583 32.4038C79.9034 32.2423 79.4929 31.9066 79.4818 31.8199C79.1223 31.6626 78.8503 31.6176 78.5919 31.5691C78.4644 31.4501 78.2859 31.4782 78.1601 31.4416V31.4408ZM22.7341 31.7893C22.7911 31.8054 22.8293 31.8836 22.865 31.9193C22.977 32.0604 23.0399 32.234 23.0444 32.414C23.0444 32.5704 23.0342 32.6945 23.0214 32.6877C23.0087 32.6809 22.9279 32.4566 22.8421 32.1896C22.7571 31.9253 22.7197 31.8063 22.7341 31.7901V31.7893ZM23.2203 32.0689C23.287 32.1132 23.3396 32.1758 23.3716 32.2491C23.4039 32.3222 23.3886 32.3588 23.3376 32.3324C23.2707 32.2894 23.2178 32.2276 23.1855 32.1548C23.154 32.0817 23.1685 32.0426 23.2203 32.0689ZM48.1933 32.907C48.2035 32.8611 48.3395 33.026 48.3701 33.0235C48.569 33.185 48.6311 33.4459 48.7441 33.6525C48.7076 33.6491 48.6744 33.6329 48.6362 33.6372C48.6192 33.5139 48.3489 33.2564 48.2477 33.1246C48.2333 33.0498 48.2112 32.981 48.1925 32.907H48.1933ZM27.5341 32.941L27.6004 32.947L27.6038 33.4816C27.3777 33.7443 27.2289 33.4094 27.0003 33.2955C26.97 33.2161 26.9627 33.1298 26.979 33.0464C27.0113 33.0677 27.0351 33.1076 27.0674 33.1246C27.2782 33.3898 27.4499 33.0107 27.54 32.9835C27.5409 32.964 27.5358 32.9563 27.5341 32.9419V32.941ZM25.8749 34.1616C25.9701 34.1761 26.0585 34.1744 26.1409 34.1651C26.2744 34.7159 26.4911 34.5747 26.9161 34.5968C27.1507 34.6207 27.4015 34.5688 27.6097 34.5552L27.6616 43.6068C27.6488 43.5873 27.6437 43.5839 27.6301 43.5644C27.3913 43.2022 27.2026 43.0441 26.7317 42.8095C26.3789 42.6506 26.0746 42.3692 25.7924 42.1465C25.3963 41.7963 24.9594 41.6467 24.1749 41.7895C23.9802 41.7402 23.5969 41.5218 23.3733 41.4266C23.2926 41.4266 23.2093 41.3747 23.1226 41.203C23.0359 41.0313 22.9747 40.7585 22.9747 40.4312C22.9747 40.1218 22.9636 39.8974 22.8336 39.7002C21.9819 39.1307 22.0958 39.3959 22.208 38.5961C22.2207 38.3623 22.3763 38.591 22.5114 38.5868C22.9704 38.8188 23.3487 39.1852 23.7269 39.5379C23.6855 39.55 23.6474 39.5711 23.6152 39.5998C23.583 39.6285 23.5576 39.6639 23.5408 39.7036C23.4558 40.0275 23.7847 40.1227 23.9403 40.291C24.1188 40.3352 24.2497 40.4074 24.3959 40.4627C24.6653 40.5298 24.8549 40.7457 24.9934 40.8324C25.6717 40.9106 25.7159 41.1478 26.1911 41.4207C26.8005 41.2421 26.6263 41.3101 26.3781 40.7678C26.0738 40.761 26.0831 40.5239 25.8885 40.3582C25.7329 40.0921 25.4541 40.0249 25.2561 39.8898C24.9909 39.9178 25.0631 39.4818 25.0419 39.2668C25.0971 38.9514 24.69 38.9556 24.582 38.8604H24.5803C24.5062 38.8678 24.4381 38.9041 24.3908 38.9616C24.3058 39.1418 24.14 38.7618 24.0278 38.6726C24.3865 38.2994 24.1902 38.0308 24.1451 37.6696C24.055 37.4214 23.8017 37.5217 23.6623 37.4605C23.5909 37.1052 23.5229 36.7754 23.4481 36.3997C24.2165 36.0384 24.4953 35.6942 24.7656 35.0533C25.16 34.4447 24.8022 34.9029 25.4601 34.7847C26.0967 34.8085 25.6726 34.5178 25.7074 34.2152C25.6904 34.1999 25.6989 34.2042 25.6989 34.2118C25.6989 34.2203 25.6955 34.2186 25.704 34.2084C25.721 34.188 25.7839 34.1489 25.8749 34.1625V34.1616ZM20.5029 35.6593C20.5785 35.686 20.6487 35.726 20.7103 35.7775C21.3197 36.2271 21.879 36.1804 22.4936 36.6122C22.5939 36.8544 22.6814 37.2089 22.7673 37.4792L22.6653 37.8761C22.1765 38.1532 21.8187 37.7503 21.2653 37.6288C21.0936 37.6883 21.0239 37.8251 20.9814 37.9807C20.0107 37.2837 19.8875 36.2773 20.5029 35.6602V35.6593ZM65.6243 37.1256C65.7433 37.3313 65.4585 37.4086 65.3837 37.537C65.2477 37.3475 65.11 37.1587 64.9732 36.9692C65.6736 36.4175 65.2707 37.0227 65.6243 37.1256ZM50.2546 39.1112C50.0786 39.333 49.9333 39.5625 49.8041 39.7453C49.629 39.4835 49.3349 39.5413 49.1028 39.4776C48.8113 39.781 49.0799 39.945 49.0807 40.132C49.306 40.1983 49.5329 40.0598 49.7055 40.0326C49.4573 40.2655 49.2762 40.58 49.1071 40.8341C49.0926 41.2702 49.0306 41.4427 48.9949 41.8252C48.7739 43.3722 49.493 43.4742 50.2444 42.4729C50.3175 42.28 50.3829 42.025 50.4705 41.634C50.5886 41.1078 50.7297 40.5324 50.768 40.4109C50.989 39.5005 50.7552 39.4452 50.2546 39.1103V39.1112ZM64.5881 40.3692C64.7411 41.4912 67.3591 42.5375 66.8406 41.2022C66.7642 41.1588 66.6786 41.134 66.5907 41.13C65.8461 41.0297 64.7921 40.2085 64.5881 40.3692ZM51.7259 40.512C51.68 40.5106 51.6344 40.5196 51.5925 40.5383C51.0561 41.0594 51.703 40.9515 51.7735 41.1316C52.3184 40.9081 51.7327 40.6021 51.7259 40.512ZM74.8213 41.1282C74.7807 41.1773 74.7585 41.2389 74.7584 41.3025C74.8561 41.4504 74.8536 41.6051 74.8765 41.6773C74.8272 42.1448 75.2021 42.1321 75.4035 42.2706C75.4594 42.245 75.5047 42.2009 75.5319 42.1457C75.571 41.7785 75.3177 41.3696 75.2131 41.0866C75.0627 40.9217 74.9403 41.1155 74.8221 41.1282H74.8213ZM75.8379 42.0726C75.7002 42.1457 75.6985 42.2604 75.6985 42.3404C75.5948 42.7365 76.0708 42.6667 76.166 42.7449C76.4023 42.6659 76.2382 42.427 76.2646 42.3115C76.2646 42.0037 75.9484 42.1346 75.8379 42.0734V42.0726ZM74.2237 48.3396C74.3648 48.7289 74.6207 48.9941 74.8731 49.301C75.2565 49.737 75.2497 49.0213 75.3245 48.9652C75.1511 48.6329 74.908 48.3549 74.6836 48.0625C74.4056 47.6664 74.3623 48.2563 74.2246 48.3396H74.2237ZM76.0946 52.8302C76.0886 53.0801 76.2153 53.3274 76.279 53.5331C76.5451 54.5208 76.183 54.3415 75.4477 54.9186C74.8969 55.0427 74.9326 55.3521 74.7635 55.6828C75.0542 55.8239 74.8884 56.0126 74.9496 56.1758C75.2446 56.6212 75.5616 56.4325 76.0317 56.3305C76.013 55.9089 76.3802 56.0092 76.5068 55.8919C76.5545 55.8815 76.5985 55.8586 76.6343 55.8256C76.5323 55.4898 76.9403 55.4856 77.0134 55.404C77.5447 55.0189 77.6433 54.8447 77.7368 54.248C77.6866 54.1341 77.6195 54.0975 77.5498 54.0559C77.2123 53.9369 77.1044 53.6139 76.948 53.307C76.5179 52.2377 76.4584 52.8914 76.0946 52.831V52.8302Z" fill="white"/>
</svg>
