<svg width="78" height="84" viewBox="0 0 78 84" fill="none" xmlns="http://www.w3.org/2000/svg">
<path d="M58.3846 0C51.2478 0 45.4615 5.79277 45.4615 12.9231C45.4615 21.5331 56.7692 33.2963 56.7692 45.1306H60C60.0032 33.2963 71.3077 21.8723 71.3077 12.9231C71.3077 5.79277 65.5214 0 58.3846 0ZM58.3846 6.26123C59.2599 6.26165 60.1265 6.43447 60.935 6.76982C61.7435 7.10516 62.478 7.59646 63.0966 8.21567C63.7152 8.83488 64.2058 9.56987 64.5404 10.3787C64.8749 11.1875 65.0469 12.0543 65.0465 12.9295C65.046 13.8048 64.8732 14.6714 64.5379 15.4799C64.2025 16.2884 63.7112 17.0229 63.092 17.6415C62.4728 18.2601 61.7378 18.7507 60.929 19.0853C60.1202 19.4198 59.2534 19.5918 58.3782 19.5914C56.61 19.5905 54.9147 18.8873 53.665 17.6365C52.4154 16.3856 51.7138 14.6896 51.7147 12.9215C51.7155 11.1533 52.4188 9.45799 53.6696 8.20834C54.9205 6.9587 56.6165 6.25714 58.3846 6.258V6.26123ZM39 6.46154C17.622 6.46154 0.230774 23.8528 0.230774 45.2308C0.230774 66.6088 17.622 84 39 84C60.378 84 77.7692 66.6088 77.7692 45.2308C77.7692 38.7369 76.1603 32.6437 73.3269 27.258C72.8972 28.1109 72.4643 28.9218 72.0152 29.7845C71.1655 31.4257 70.2706 33.0831 69.4888 34.7308C70.2965 37.0408 70.8522 39.4832 71.1042 42H66.8654C66.6328 43.0823 66.4615 44.1 66.4615 45.1306V48.4615H71.1074C70.669 53.0163 69.2565 57.4236 66.9655 61.3846H57.48C58.1908 58.3542 58.6011 55.0038 58.8918 51.5922H52.5272C52.2262 54.8978 51.6534 58.173 50.8149 61.3846H27.1851C26.0932 57.1563 25.45 52.8247 25.266 48.4615H50.3045V45.1306C50.2794 44.0758 50.1441 43.0266 49.9006 42H25.2692C25.4532 37.6369 26.0964 33.3052 27.1883 29.0769H44.4535C43.3329 26.9608 42.2877 24.8056 41.3197 22.6154H29.4079C32.0797 16.5189 35.6109 12.9231 39 12.9231C39 10.6777 39.4039 8.568 40.1114 6.56169C39.7398 6.54877 39.3748 6.46154 39 6.46154ZM25.6731 15.8502C24.3864 17.999 23.3048 20.264 22.4423 22.6154H15.9808C18.7676 19.783 22.0534 17.4894 25.6731 15.8502ZM11.0345 29.0769H20.52C19.5428 33.321 18.9685 37.6479 18.8045 42H6.89262C7.32951 37.4449 8.74214 33.0373 11.0345 29.0769ZM6.89262 48.4615H18.8077C18.9983 53.0654 19.5928 57.4108 20.5232 61.3846H11.0345C8.74492 57.423 7.33248 53.016 6.89262 48.4615ZM15.9808 67.8462H22.4423C23.3728 70.3532 24.4615 72.6051 25.6731 74.6114C22.0534 72.9721 18.7676 70.6786 15.9808 67.8462ZM29.4079 67.8462H48.5922C45.9203 73.9426 42.3891 77.5385 39 77.5385C35.6109 77.5385 32.0765 73.9426 29.4079 67.8462ZM55.5577 67.8462H62.0192C59.2324 70.6786 55.9466 72.9721 52.3269 74.6114C53.5385 72.6083 54.6272 70.3565 55.5577 67.8462Z" fill="#F6F2ED"/>
</svg>
